<svg xmlns="http://www.w3.org/2000/svg" viewBox="0 0 600 400" width="600" height="400">
<defs>
  <filter id="grain" x="0" y="0" width="100%" height="100%"><feTurbulence type="fractalNoise" baseFrequency=".85" numOctaves="2" seed="3" stitchTiles="stitch"/><feColorMatrix values="0 0 0 0 1  0 0 0 0 1  0 0 0 0 1  0 0 0 0.09 0"/></filter>
  <radialGradient id="vignette" cx=".5" cy=".5" r=".75"><stop offset=".55" stop-color="#000" stop-opacity="0"/><stop offset="1" stop-color="#000" stop-opacity="0.55"/></radialGradient>
</defs>
<defs>
    <radialGradient id="pool17" cx=".4" cy=".45" r=".6"><stop offset="0" stop-color="#ffc979" stop-opacity=".3"/><stop offset="1" stop-color="#ffc979" stop-opacity="0"/></radialGradient>
    <linearGradient id="paper17" x1="0" y1="0" x2="1" y2="1"><stop offset="0" stop-color="#e9edf7"/><stop offset=".6" stop-color="#cfd7ea"/><stop offset="1" stop-color="#a9b4d0"/></linearGradient>
    <mask id="notch17"><rect x="-20" y="-20" width="600" height="300" fill="#fff"/><circle cx="330" cy="0" r="10" fill="#000"/><circle cx="330" cy="190" r="10" fill="#000"/></mask>
    <filter id="b6" x="-100%" y="-100%" width="300%" height="300%"><feGaussianBlur stdDeviation="6"/></filter>
  </defs>
  <rect width="600" height="400" fill="#151d3d"/>
  <rect width="600" height="400" fill="url(#pool17)"/>
  <g transform="rotate(14 420 280)">
    <rect x="330" y="190" width="200" height="140" rx="8" fill="#000" opacity=".5" filter="url(#b6)" transform="translate(6 8)"/>
    <rect x="330" y="190" width="200" height="140" rx="8" fill="#13224f"/>
    <circle cx="430" cy="252" r="22" fill="none" stroke="#c9a85a" stroke-width="2"/>
    <text x="430" y="306" text-anchor="middle" font-family="Georgia, serif" font-size="12" letter-spacing="3" fill="#c9a85a">PASSPORT</text>
  </g>
  <g transform="translate(70 90) rotate(-7)">
    <rect width="440" height="190" rx="10" fill="#000" opacity=".5" filter="url(#b6)" transform="translate(8 10)"/>
    <g mask="url(#notch17)"><rect width="440" height="190" rx="10" fill="url(#paper17)"/></g>
    <line x1="330" y1="14" x2="330" y2="176" stroke="#0b1330" stroke-opacity=".35" stroke-dasharray="4 5"/>
    <g font-family="ui-monospace, Menlo, monospace" fill="#0b1330">
      <text x="22" y="34" font-size="10" letter-spacing="3" opacity=".65">BOARDING PASS</text>
      <text x="22" y="88" font-size="38" font-weight="700">ORD</text><text x="124" y="84" font-size="20">→</text><text x="158" y="88" font-size="38" font-weight="700">NRT</text>
      <text x="22" y="124" font-size="9" letter-spacing="2" opacity=".65">DEPARTS</text><text x="22" y="142" font-size="14">23:55</text>
      <text x="104" y="124" font-size="9" letter-spacing="2" opacity=".65">GROUP</text><text x="104" y="142" font-size="14">4</text>
      <text x="168" y="124" font-size="9" letter-spacing="2" opacity=".65">SEAT</text><text x="168" y="142" font-size="14" font-weight="700">32A</text>
      <text x="348" y="38" font-size="9" letter-spacing="2" opacity=".65">SEAT</text><text x="348" y="72" font-size="28" font-weight="700">32A</text>
    </g>
    <rect x="348" y="110" width="1" height="50" fill="#0b1330"/><rect x="350.9" y="110" width="2" height="50" fill="#0b1330"/><rect x="353.8" y="110" width="1" height="50" fill="#0b1330"/><rect x="356.7" y="110" width="1.5" height="50" fill="#0b1330"/><rect x="359.6" y="110" width="1" height="50" fill="#0b1330"/><rect x="362.5" y="110" width="2" height="50" fill="#0b1330"/><rect x="365.4" y="110" width="1" height="50" fill="#0b1330"/><rect x="368.3" y="110" width="1.5" height="50" fill="#0b1330"/><rect x="371.2" y="110" width="1" height="50" fill="#0b1330"/><rect x="374.1" y="110" width="2" height="50" fill="#0b1330"/><rect x="377" y="110" width="1" height="50" fill="#0b1330"/><rect x="379.9" y="110" width="1.5" height="50" fill="#0b1330"/><rect x="382.8" y="110" width="1" height="50" fill="#0b1330"/><rect x="385.7" y="110" width="2" height="50" fill="#0b1330"/><rect x="388.6" y="110" width="1" height="50" fill="#0b1330"/><rect x="391.5" y="110" width="1.5" height="50" fill="#0b1330"/><rect x="394.4" y="110" width="1" height="50" fill="#0b1330"/><rect x="397.3" y="110" width="2" height="50" fill="#0b1330"/><rect x="400.2" y="110" width="1" height="50" fill="#0b1330"/><rect x="403.1" y="110" width="1.5" height="50" fill="#0b1330"/><rect x="406" y="110" width="1" height="50" fill="#0b1330"/><rect x="408.9" y="110" width="2" height="50" fill="#0b1330"/><rect x="411.8" y="110" width="1" height="50" fill="#0b1330"/><rect x="414.7" y="110" width="1.5" height="50" fill="#0b1330"/><rect x="417.6" y="110" width="1" height="50" fill="#0b1330"/><rect x="420.5" y="110" width="2" height="50" fill="#0b1330"/>
    <path d="M0 150 L440 120 V190 H0 Z" fill="#000" opacity=".08"/>
  </g>
<rect width="600" height="400" fill="url(#vignette)"/>
<rect width="600" height="400" filter="url(#grain)"/>
</svg>
