<svg xmlns="http://www.w3.org/2000/svg" viewBox="0 0 600 440" width="600" height="440">
<defs>
  <filter id="grain" x="0" y="0" width="100%" height="100%"><feTurbulence type="fractalNoise" baseFrequency=".85" numOctaves="2" seed="3" stitchTiles="stitch"/><feColorMatrix values="0 0 0 0 1  0 0 0 0 1  0 0 0 0 1  0 0 0 0.09 0"/></filter>
  <radialGradient id="vignette" cx=".5" cy=".5" r=".75"><stop offset=".55" stop-color="#000" stop-opacity="0"/><stop offset="1" stop-color="#000" stop-opacity="0.45"/></radialGradient>
</defs>
<defs>
      <linearGradient id="wallL26" x1="0" y1="0" x2="1" y2="0"><stop offset="0" stop-color="#7a83a3"/><stop offset="1" stop-color="#4c5576"/></linearGradient>
      <linearGradient id="wallR26" x1="1" y1="0" x2="0" y2="0"><stop offset="0" stop-color="#7a83a3"/><stop offset="1" stop-color="#4c5576"/></linearGradient>
      <linearGradient id="ceil26" x1="0" y1="0" x2="0" y2="1"><stop offset="0" stop-color="#9aa3c0"/><stop offset="1" stop-color="#626b8c"/></linearGradient>
      <linearGradient id="floor26" x1="0" y1="1" x2="0" y2="0"><stop offset="0" stop-color="#2a2f44"/><stop offset="1" stop-color="#4a4658"/></linearGradient>
      <linearGradient id="night26" x1="0" y1="0" x2="0" y2="1"><stop offset="0" stop-color="#02040c"/><stop offset="1" stop-color="#132457"/></linearGradient>
      <radialGradient id="door26" cx=".5" cy=".55" r=".6"><stop offset="0" stop-color="#fff4dc"/><stop offset=".6" stop-color="#ffc979"/><stop offset="1" stop-color="#c78a3c"/></radialGradient>
      <linearGradient id="spill26" x1="0" y1="0" x2="0" y2="1"><stop offset="0" stop-color="#ffc979" stop-opacity=".5"/><stop offset="1" stop-color="#ffc979" stop-opacity="0"/></linearGradient>
      <filter id="b10" x="-100%" y="-100%" width="300%" height="300%"><feGaussianBlur stdDeviation="10"/></filter><filter id="b16" x="-100%" y="-100%" width="300%" height="300%"><feGaussianBlur stdDeviation="16"/></filter>
    </defs>
    <polygon points="0,0 600,0 384,144 216,144" fill="url(#ceil26)"/>
    <polygon points="0,0 216,144 216,267.2 0,440" fill="url(#wallL26)"/>
    <polygon points="600,0 384,144 384,267.2 600,440" fill="url(#wallR26)"/>
    <polygon points="0,440 216,267.2 384,267.2 600,440" fill="url(#floor26)"/>
    <ellipse cx="300" cy="438" rx="150" ry="22" fill="#e8eeff" opacity=".12" filter="url(#b10)"/><ellipse cx="300" cy="385.6" rx="117" ry="17.2" fill="#e8eeff" opacity=".12" filter="url(#b10)"/><ellipse cx="300" cy="344.8" rx="91.3" ry="13.4" fill="#e8eeff" opacity=".12" filter="url(#b10)"/><ellipse cx="300" cy="312.9" rx="71.2" ry="10.4" fill="#e8eeff" opacity=".12" filter="url(#b10)"/><ellipse cx="300" cy="288.1" rx="55.5" ry="8.1" fill="#e8eeff" opacity=".12" filter="url(#b10)"/><ellipse cx="300" cy="268.7" rx="43.3" ry="6.4" fill="#e8eeff" opacity=".12" filter="url(#b10)"/>
    <polygon points="8,120 40.1,128.8 40.1,226.7 8,230" fill="url(#night26)" stroke="#8c94ae" stroke-width="2"/><circle cx="24.5" cy="216.3" r="2" fill="#ffc979"/><circle cx="18.5" cy="206.3" r="1.4" fill="#9cc4ff"/><polygon points="72.2,137.6 97.3,144.5 97.3,220.8 72.2,223.4" fill="url(#night26)" stroke="#8c94ae" stroke-width="1.6"/><circle cx="85.1" cy="212.8" r="1.6" fill="#ffc979"/><circle cx="80.4" cy="205" r="1.1" fill="#9cc4ff"/><polygon points="122.3,151.3 141.9,156.7 141.9,216.2 122.3,218.3" fill="url(#night26)" stroke="#8c94ae" stroke-width="1.2"/><circle cx="132.4" cy="209.9" r="1.2" fill="#ffc979"/><circle cx="128.7" cy="203.9" r="0.9" fill="#9cc4ff"/><polygon points="161.4,162 176.7,166.2 176.7,212.7 161.4,214.2" fill="url(#night26)" stroke="#8c94ae" stroke-width="0.9"/><circle cx="169.3" cy="207.8" r="0.9" fill="#ffc979"/><polygon points="191.9,170.4 203.8,173.6 203.8,209.9 191.9,211.1" fill="url(#night26)" stroke="#8c94ae" stroke-width="0.7"/><circle cx="198" cy="206.1" r="0.7" fill="#ffc979"/><circle cx="195.8" cy="202.4" r="0.5" fill="#9cc4ff"/><polygon points="215.7,176.9 225,179.4 225,207.7 215.7,208.7" fill="url(#night26)" stroke="#8c94ae" stroke-width="0.6"/><circle cx="220.5" cy="204.7" r="0.6" fill="#ffc979"/><circle cx="218.7" cy="201.8" r="0.5" fill="#9cc4ff"/>
    <rect x="216" y="144" width="168" height="123.2" fill="#c3cadc"/>
    <rect x="266" y="156" width="68" height="109.2" rx="20" fill="url(#door26)"/>
    <rect x="266" y="156" width="68" height="109.2" rx="20" fill="none" stroke="#7a8098" stroke-width="3"/>
    <rect x="278" y="184" width="20" height="40" rx="5" fill="#2a3a72" opacity=".75"/>
    <rect x="270" y="160" width="60" height="3" fill="#5b8cff" opacity=".7"/>
    <rect x="240" y="134" width="120" height="143.2" fill="#ffc979" opacity=".2" filter="url(#b16)"/>
    <polygon points="266,267.2 334,267.2 440,440 160,440" fill="url(#spill26)"/>
    <polygon points="245,4 355,4 348.9,25.6 251.1,25.6" fill="#f4f7ff"/><ellipse cx="300" cy="14.8" rx="110" ry="26" fill="#e8eeff" opacity=".35" filter="url(#b10)"/><polygon points="257.1,47.1 342.9,47.1 338.2,63.9 261.8,63.9" fill="#f4f7ff"/><ellipse cx="300" cy="55.5" rx="85.8" ry="20.3" fill="#e8eeff" opacity=".35" filter="url(#b10)"/><polygon points="266.5,80.8 333.5,80.8 329.8,93.9 270.2,93.9" fill="#f4f7ff"/><ellipse cx="300" cy="87.3" rx="66.9" ry="15.8" fill="#e8eeff" opacity=".35" filter="url(#b10)"/><polygon points="273.9,107 326.1,107 323.2,117.2 276.8,117.2" fill="#f4f7ff"/><ellipse cx="300" cy="112.1" rx="52.2" ry="12.3" fill="#e8eeff" opacity=".35" filter="url(#b10)"/><polygon points="279.6,127.5 320.4,127.5 318.1,135.4 281.9,135.4" fill="#f4f7ff"/><ellipse cx="300" cy="131.4" rx="40.7" ry="9.6" fill="#e8eeff" opacity=".35" filter="url(#b10)"/><polygon points="284.1,143.4 315.9,143.4 314.1,149.6 285.9,149.6" fill="#f4f7ff"/><ellipse cx="300" cy="146.5" rx="31.8" ry="7.5" fill="#e8eeff" opacity=".35" filter="url(#b10)"/>
    <rect x="0" y="0" width="600" height="440" rx="18" fill="none" stroke="#2a3048" stroke-opacity=".8" stroke-width="9"/><rect x="4" y="4" width="592" height="432" rx="16" fill="none" stroke="#a9b2cc" stroke-opacity=".5" stroke-width="1.5"/><rect x="66" y="44" width="468" height="343.2" rx="14" fill="none" stroke="#2a3048" stroke-opacity=".8" stroke-width="7"/><rect x="69.1" y="47.1" width="461.8" height="337" rx="12.5" fill="none" stroke="#a9b2cc" stroke-opacity=".5" stroke-width="1.2"/><rect x="117.5" y="78.3" width="365" height="267.7" rx="11" fill="none" stroke="#2a3048" stroke-opacity=".8" stroke-width="5.5"/><rect x="119.9" y="80.8" width="360.2" height="262.8" rx="9.7" fill="none" stroke="#a9b2cc" stroke-opacity=".5" stroke-width="0.9"/><rect x="157.6" y="105.1" width="284.7" height="208.8" rx="8.5" fill="none" stroke="#2a3048" stroke-opacity=".8" stroke-width="4.3"/><rect x="159.5" y="107" width="280.9" height="205" rx="7.6" fill="none" stroke="#a9b2cc" stroke-opacity=".5" stroke-width="0.7"/><rect x="189" y="126" width="222.1" height="162.9" rx="6.7" fill="none" stroke="#2a3048" stroke-opacity=".8" stroke-width="3.3"/><rect x="190.4" y="127.5" width="219.1" height="159.9" rx="5.9" fill="none" stroke="#a9b2cc" stroke-opacity=".5" stroke-width="0.6"/><rect x="213.4" y="142.3" width="173.2" height="127" rx="5.2" fill="none" stroke="#2a3048" stroke-opacity=".8" stroke-width="2.6"/><rect x="214.5" y="143.4" width="170.9" height="124.7" rx="4.6" fill="none" stroke="#a9b2cc" stroke-opacity=".5" stroke-width="0.4"/>
<rect width="600" height="440" fill="url(#vignette)"/>
<rect width="600" height="440" filter="url(#grain)"/>
</svg>
