<svg xmlns="http://www.w3.org/2000/svg" viewBox="0 0 760 420" width="760" height="420">
<defs>
  <filter id="grain" x="0" y="0" width="100%" height="100%"><feTurbulence type="fractalNoise" baseFrequency=".85" numOctaves="2" seed="3" stitchTiles="stitch"/><feColorMatrix values="0 0 0 0 1  0 0 0 0 1  0 0 0 0 1  0 0 0 0.09 0"/></filter>
  <radialGradient id="vignette" cx=".5" cy=".5" r=".75"><stop offset=".55" stop-color="#000" stop-opacity="0"/><stop offset="1" stop-color="#000" stop-opacity="0.55"/></radialGradient>
</defs>
<defs>
      <linearGradient id="sky5" x1="0" y1="0" x2="0" y2="1"><stop offset="0" stop-color="#02040c"/><stop offset=".5" stop-color="#0f1f4f"/><stop offset=".6" stop-color="#26397a"/></linearGradient>
      <radialGradient id="halo"><stop offset="0" stop-color="#dfe8ff" stop-opacity=".55"/><stop offset=".3" stop-color="#9cb4f0" stop-opacity=".18"/><stop offset="1" stop-color="#9cb4f0" stop-opacity="0"/></radialGradient>
      <radialGradient id="moonpath" cx=".7" cy=".1" r=".6"><stop offset="0" stop-color="#c9d7ff" stop-opacity=".45"/><stop offset="1" stop-color="#c9d7ff" stop-opacity="0"/></radialGradient>
      <linearGradient id="fade5" x1="0" y1="0" x2="0" y2="1"><stop offset="0" stop-color="#fff" stop-opacity=".15"/><stop offset=".25" stop-color="#fff" stop-opacity="1"/></linearGradient>
      <mask id="m5"><rect y="220" width="760" height="200" fill="url(#fade5)"/></mask>
      <filter id="cl5" x="0" y="0" width="100%" height="100%"><feTurbulence type="fractalNoise" baseFrequency=".005 .03" numOctaves="5" seed="11"/><feColorMatrix values="0 0 0 0 .42  0 0 0 0 .52  0 0 0 0 .82  2.2 0 0 0 -.85"/></filter>
      <filter id="cl5b" x="0" y="0" width="100%" height="100%"><feTurbulence type="fractalNoise" baseFrequency=".012 .05" numOctaves="4" seed="4"/><feColorMatrix values="0 0 0 0 .2  0 0 0 0 .26  0 0 0 0 .5  2 0 0 0 -.9"/></filter>
    </defs>
    <rect width="760" height="420" fill="url(#sky5)"/>
    <circle cx="235.8" cy="188.4" r="0.3" fill="#dfe8ff" opacity="0.8"/><circle cx="236.8" cy="169.3" r="0.6" fill="#dfe8ff" opacity="0.9"/><circle cx="205.9" cy="178.9" r="0.6" fill="#dfe8ff" opacity="0.6"/><circle cx="244.4" cy="177.3" r="0.5" fill="#dfe8ff" opacity="1"/><circle cx="748.5" cy="183.8" r="1.3" fill="#dfe8ff" opacity="1"/><circle cx="563.8" cy="8.2" r="0.4" fill="#dfe8ff" opacity="0.7"/><circle cx="586" cy="42.3" r="0.3" fill="#dfe8ff" opacity="0.7"/><circle cx="632.9" cy="73.8" r="1.2" fill="#dfe8ff" opacity="0.5"/><circle cx="26.7" cy="121.6" r="0.3" fill="#dfe8ff" opacity="0.4"/><circle cx="105.5" cy="183.3" r="0.5" fill="#dfe8ff" opacity="0.8"/><circle cx="751" cy="43" r="0.3" fill="#dfe8ff" opacity="0.9"/><circle cx="493.2" cy="25.5" r="0.7" fill="#dfe8ff" opacity="0.8"/><circle cx="505.1" cy="111.1" r="0.4" fill="#dfe8ff" opacity="0.6"/><circle cx="73.8" cy="170.6" r="0.4" fill="#dfe8ff" opacity="0.5"/><circle cx="470.5" cy="86.2" r="0.3" fill="#dfe8ff" opacity="0.8"/><circle cx="277.9" cy="171.4" r="0.3" fill="#dfe8ff" opacity="0.9"/><circle cx="194.9" cy="33.1" r="0.5" fill="#dfe8ff" opacity="0.5"/><circle cx="498.8" cy="124.6" r="1.7" fill="#dfe8ff" opacity="0.4"/><circle cx="690" cy="54.2" r="0.3" fill="#dfe8ff" opacity="0.6"/><circle cx="573.6" cy="160.3" r="0.3" fill="#dfe8ff" opacity="0.3"/><circle cx="707.6" cy="4" r="0.4" fill="#dfe8ff" opacity="0.3"/><circle cx="191.9" cy="185.1" r="0.3" fill="#dfe8ff" opacity="0.6"/><circle cx="72" cy="20.2" r="0.5" fill="#dfe8ff" opacity="0.8"/><circle cx="88.8" cy="9.3" r="0.3" fill="#dfe8ff" opacity="0.9"/><circle cx="519.7" cy="107.2" r="0.5" fill="#dfe8ff" opacity="0.5"/><circle cx="719.6" cy="84.1" r="1" fill="#dfe8ff" opacity="0.5"/><circle cx="287.1" cy="33.7" r="0.3" fill="#dfe8ff" opacity="0.6"/><circle cx="689" cy="125.1" r="1.1" fill="#dfe8ff" opacity="0.6"/><circle cx="251.8" cy="10.7" r="1.2" fill="#dfe8ff" opacity="0.9"/><circle cx="653.8" cy="123.7" r="0.3" fill="#dfe8ff" opacity="1"/><circle cx="514.6" cy="63.2" r="0.3" fill="#dfe8ff" opacity="0.5"/><circle cx="101.9" cy="98.9" r="0.5" fill="#dfe8ff" opacity="0.8"/><circle cx="285.9" cy="20" r="0.4" fill="#dfe8ff" opacity="0.3"/><circle cx="401.9" cy="190.6" r="0.4" fill="#dfe8ff" opacity="0.5"/><circle cx="199" cy="99.8" r="0.9" fill="#dfe8ff" opacity="0.5"/><circle cx="401.9" cy="180.4" r="0.3" fill="#dfe8ff" opacity="0.9"/><circle cx="166.3" cy="11.6" r="0.6" fill="#dfe8ff" opacity="0.8"/><circle cx="436.6" cy="77.6" r="0.4" fill="#dfe8ff" opacity="0.5"/><circle cx="538.2" cy="28.1" r="0.3" fill="#dfe8ff" opacity="0.7"/><circle cx="586.6" cy="189.8" r="0.3" fill="#dfe8ff" opacity="0.8"/><circle cx="259" cy="108.9" r="0.6" fill="#dfe8ff" opacity="0.3"/><circle cx="506" cy="146.9" r="0.3" fill="#dfe8ff" opacity="0.5"/><circle cx="274.1" cy="143.3" r="0.3" fill="#dfe8ff" opacity="0.4"/><circle cx="64.6" cy="44" r="0.5" fill="#dfe8ff" opacity="0.3"/><circle cx="124.5" cy="68.8" r="0.9" fill="#dfe8ff" opacity="0.5"/><circle cx="367.9" cy="13.7" r="0.9" fill="#dfe8ff" opacity="0.8"/><circle cx="716.4" cy="189.9" r="0.3" fill="#dfe8ff" opacity="0.6"/><circle cx="619" cy="173.7" r="0.8" fill="#dfe8ff" opacity="0.7"/><circle cx="479.3" cy="187.7" r="0.4" fill="#dfe8ff" opacity="0.8"/><circle cx="96.7" cy="1.8" r="0.9" fill="#dfe8ff" opacity="0.4"/><circle cx="155.4" cy="13.8" r="1.1" fill="#dfe8ff" opacity="0.9"/><circle cx="222.7" cy="90" r="1.2" fill="#dfe8ff" opacity="0.6"/><circle cx="108.8" cy="149.4" r="1.1" fill="#dfe8ff" opacity="0.3"/><circle cx="387.9" cy="153.4" r="0.3" fill="#dfe8ff" opacity="0.8"/><circle cx="77.1" cy="122.5" r="0.3" fill="#dfe8ff" opacity="0.6"/><circle cx="472.8" cy="130.2" r="0.7" fill="#dfe8ff" opacity="0.6"/><circle cx="641.8" cy="193.1" r="1.4" fill="#dfe8ff" opacity="1"/><circle cx="531.9" cy="189.7" r="0.6" fill="#dfe8ff" opacity="0.4"/><circle cx="58.3" cy="35.8" r="0.4" fill="#dfe8ff" opacity="0.6"/><circle cx="282" cy="66" r="0.3" fill="#dfe8ff" opacity="0.7"/><circle cx="463.5" cy="133.3" r="0.3" fill="#dfe8ff" opacity="0.9"/><circle cx="367.7" cy="72" r="0.4" fill="#dfe8ff" opacity="0.8"/><circle cx="160.7" cy="39.7" r="0.4" fill="#dfe8ff" opacity="0.6"/><circle cx="167.9" cy="52.3" r="0.6" fill="#dfe8ff" opacity="0.5"/><circle cx="251" cy="76" r="0.3" fill="#dfe8ff" opacity="0.5"/><circle cx="184.9" cy="78.7" r="0.9" fill="#dfe8ff" opacity="0.8"/><circle cx="210.8" cy="109.7" r="1.6" fill="#dfe8ff" opacity="0.5"/><circle cx="324.4" cy="198.5" r="0.4" fill="#dfe8ff" opacity="0.4"/><circle cx="536.2" cy="2.4" r="0.4" fill="#dfe8ff" opacity="0.8"/><circle cx="504.9" cy="124" r="0.6" fill="#dfe8ff" opacity="0.7"/><circle cx="157.1" cy="94.7" r="0.6" fill="#dfe8ff" opacity="0.9"/><circle cx="703.4" cy="47.9" r="0.3" fill="#dfe8ff" opacity="0.9"/><circle cx="313" cy="159.8" r="1.4" fill="#dfe8ff" opacity="0.7"/><circle cx="536.8" cy="122.5" r="0.3" fill="#dfe8ff" opacity="0.7"/><circle cx="213.4" cy="43.8" r="0.6" fill="#dfe8ff" opacity="0.5"/><circle cx="484.1" cy="114.4" r="0.3" fill="#dfe8ff" opacity="0.3"/><circle cx="435.2" cy="126.8" r="0.9" fill="#dfe8ff" opacity="0.7"/><circle cx="305.4" cy="176.9" r="0.6" fill="#dfe8ff" opacity="0.4"/><circle cx="753.2" cy="103.4" r="0.3" fill="#dfe8ff" opacity="0.4"/><circle cx="475.7" cy="12.9" r="0.6" fill="#dfe8ff" opacity="0.8"/><circle cx="214.2" cy="85.1" r="0.5" fill="#dfe8ff" opacity="0.6"/><circle cx="169.4" cy="179.3" r="0.3" fill="#dfe8ff" opacity="0.9"/><circle cx="14.8" cy="183.1" r="0.8" fill="#dfe8ff" opacity="0.3"/><circle cx="424.9" cy="65.1" r="0.6" fill="#dfe8ff" opacity="0.7"/><circle cx="637.6" cy="142" r="0.4" fill="#dfe8ff" opacity="0.3"/><circle cx="424.1" cy="25.9" r="0.3" fill="#dfe8ff" opacity="0.3"/><circle cx="429" cy="7.1" r="0.3" fill="#dfe8ff" opacity="0.4"/><circle cx="540.8" cy="72.1" r="0.5" fill="#dfe8ff" opacity="0.6"/><circle cx="284.7" cy="119.3" r="1.7" fill="#dfe8ff" opacity="0.7"/><circle cx="108.9" cy="196.5" r="1.1" fill="#dfe8ff" opacity="0.8"/>
    <circle cx="560" cy="88" r="140" fill="url(#halo)"/>
    <circle cx="560" cy="88" r="22" fill="#f1f5ff"/>
    <circle cx="553" cy="83" r="5" fill="#d7e0f5"/><circle cx="566" cy="95" r="3.5" fill="#d7e0f5"/>
    <g mask="url(#m5)">
      <rect y="220" width="760" height="200" fill="#0d1836"/>
      <rect y="220" width="760" height="200" filter="url(#cl5)"/>
      <rect y="220" width="760" height="200" filter="url(#cl5b)"/>
      <rect y="220" width="760" height="200" fill="url(#moonpath)"/>
    </g>
<rect width="760" height="420" fill="url(#vignette)"/>
<rect width="760" height="420" filter="url(#grain)"/>
</svg>
