<svg xmlns="http://www.w3.org/2000/svg" viewBox="0 0 560 400" width="560" height="400">
<defs>
  <filter id="grain" x="0" y="0" width="100%" height="100%"><feTurbulence type="fractalNoise" baseFrequency=".85" numOctaves="2" seed="3" stitchTiles="stitch"/><feColorMatrix values="0 0 0 0 1  0 0 0 0 1  0 0 0 0 1  0 0 0 0.09 0"/></filter>
  <radialGradient id="vignette" cx=".5" cy=".5" r=".75"><stop offset=".55" stop-color="#000" stop-opacity="0"/><stop offset="1" stop-color="#000" stop-opacity="0.55"/></radialGradient>
</defs>
<defs>
    <filter id="lap10" x="0" y="0" width="100%" height="100%"><feTurbulence type="fractalNoise" baseFrequency=".9 .25" numOctaves="2" seed="5"/><feColorMatrix values="0 0 0 0 0.08  0 0 0 0 0.1  0 0 0 0 0.22  0 0 0 .5 0"/></filter>
    <pattern id="web10" width="6" height="40" patternUnits="userSpaceOnUse"><rect width="6" height="40" fill="#4c5a82"/><path d="M0 0 V40" stroke="#36436a" stroke-width="2"/></pattern>
    <linearGradient id="metal10" x1="0" y1="0" x2="0" y2="1"><stop offset="0" stop-color="#dfe7fb"/><stop offset=".25" stop-color="#9aa8cf"/><stop offset=".5" stop-color="#4b5885"/><stop offset=".75" stop-color="#8592bd"/><stop offset="1" stop-color="#2c3459"/></linearGradient>
    <linearGradient id="lever10" x1="0" y1="0" x2="1" y2="1"><stop offset="0" stop-color="#c7d3f0"/><stop offset=".5" stop-color="#6c7aa3"/><stop offset="1" stop-color="#2a3358"/></linearGradient>
    <linearGradient id="shade10" x1="0" y1="0" x2="0" y2="1"><stop offset="0" stop-color="#000" stop-opacity=".2"/><stop offset=".5" stop-color="#000" stop-opacity="0"/><stop offset="1" stop-color="#000" stop-opacity=".5"/></linearGradient>
    <filter id="b8" x="-100%" y="-100%" width="300%" height="300%"><feGaussianBlur stdDeviation="8"/></filter><filter id="b4" x="-100%" y="-100%" width="300%" height="300%"><feGaussianBlur stdDeviation="4"/></filter>
  </defs>
  <rect width="560" height="400" fill="#0d1534"/>
  <rect width="560" height="400" filter="url(#lap10)"/>
  <path d="M0 120 Q280 150 560 110" stroke="#000" stroke-opacity=".3" stroke-width="40" fill="none" filter="url(#b8)"/>
  <polygon points="0,160 210,170 210,250 0,268" fill="url(#web10)"/>
  <polygon points="350,168 560,150 560,256 350,252" fill="url(#web10)"/>
  <polygon points="0,160 210,170 210,250 0,268" fill="url(#shade10)"/>
  <polygon points="350,168 560,150 560,256 350,252" fill="url(#shade10)"/>
  <rect x="196" y="158" width="180" height="114" rx="16" fill="#000" opacity=".5" filter="url(#b8)" transform="translate(6 10)"/>
  <rect x="190" y="150" width="180" height="114" rx="16" fill="url(#metal10)"/>
  <rect x="206" y="166" width="148" height="82" rx="10" fill="url(#lever10)" stroke="#1d2446" stroke-opacity=".6"/>
  <rect x="226" y="186" width="108" height="10" rx="5" fill="#2a3358" opacity=".5"/>
  <path d="M198 158 H362" stroke="#fff" stroke-opacity=".7" stroke-width="2"/>
  <rect x="300" y="152" width="40" height="110" fill="#5b8cff" opacity=".25" filter="url(#b4)"/>
  <circle cx="232" cy="170" r="10" fill="#ffc979" opacity=".6" filter="url(#b4)"/>
<rect width="560" height="400" fill="url(#vignette)"/>
<rect width="560" height="400" filter="url(#grain)"/>
</svg>
