<svg xmlns="http://www.w3.org/2000/svg" viewBox="0 0 560 820" width="560" height="820">
<rect width="560" height="820" fill="#3a3d42"/>
<rect x="0" y="0" width="560" height="820" fill="#3a3d42"/>
    <g transform="rotate(-5 280 410)">
      <rect x="130" y="20" width="300" height="790" rx="4" fill="#ffffff"/>
      <rect x="130" y="20" width="300" height="80" rx="4" fill="#d8d6d0"/>
      <circle cx="280" cy="58" r="14" fill="#3a3d42"/>
      <line x1="150" y1="100" x2="410" y2="100" stroke="#8b9096" stroke-width="2" stroke-linecap="butt" stroke-dasharray="6 6"/>
      <rect x="130" y="112" width="300" height="58" fill="#111214"/>
      <text x="150" y="151" font-family="'Helvetica Neue', Helvetica, Arial, 'Liberation Sans', 'Nimbus Sans', sans-serif" font-size="26" font-weight="700" fill="#ffcc00" text-anchor="start" letter-spacing="3" textLength="160" lengthAdjust="spacingAndGlyphs">PRIORITY</text>
      <g transform="translate(372 120) scale(0.42)"><path d="M38 30 V18 Q38 14 42 14 H58 Q62 14 62 18 V30" fill="none" stroke="#ffffff" stroke-width="7"/><rect x="16" y="30" width="68" height="56" rx="7" fill="#ffffff"/><rect x="31" y="30" width="5" height="56" fill="#111214"/><rect x="64" y="30" width="5" height="56" fill="#111214"/><rect x="24" y="86" width="10" height="8" rx="2" fill="#ffffff"/><rect x="66" y="86" width="10" height="8" rx="2" fill="#ffffff"/></g>
      <text x="280" y="330" font-family="'Helvetica Neue', Helvetica, Arial, 'Liberation Sans', 'Nimbus Sans', sans-serif" font-size="150" font-weight="700" fill="#111214" text-anchor="middle" textLength="250" lengthAdjust="spacingAndGlyphs">LHR</text>
      <text x="280" y="366" font-family="'Helvetica Neue', Helvetica, Arial, 'Liberation Sans', 'Nimbus Sans', sans-serif" font-size="20" font-weight="700" fill="#111214" text-anchor="middle" letter-spacing="2" textLength="250" lengthAdjust="spacingAndGlyphs">LONDON HEATHROW</text>
      <rect x="150" y="390" width="260" height="3" fill="#111214"/>
      <text x="150" y="426" font-family="'Helvetica Neue', Helvetica, Arial, 'Liberation Sans', 'Nimbus Sans', sans-serif" font-size="26" font-weight="700" fill="#111214" text-anchor="start">UA 914</text><text x="410" y="426" font-family="'Helvetica Neue', Helvetica, Arial, 'Liberation Sans', 'Nimbus Sans', sans-serif" font-size="26" font-weight="700" fill="#111214" text-anchor="end">07OCT</text>
      <text x="150" y="458" font-family="'Helvetica Neue', Helvetica, Arial, 'Liberation Sans', 'Nimbus Sans', sans-serif" font-size="18" font-weight="400" fill="#111214" text-anchor="start">ORD → LHR</text><text x="410" y="458" font-family="'Helvetica Neue', Helvetica, Arial, 'Liberation Sans', 'Nimbus Sans', sans-serif" font-size="18" font-weight="400" fill="#111214" text-anchor="end">DOE/J</text>
      <rect x="160" y="486" width="3.4" height="110" fill="#111214"/><rect x="166.9" y="486" width="3.4" height="110" fill="#111214"/><rect x="173.7" y="486" width="1.7" height="110" fill="#111214"/><rect x="178.9" y="486" width="1.7" height="110" fill="#111214"/><rect x="184" y="486" width="1.7" height="110" fill="#111214"/><rect x="192.6" y="486" width="1.7" height="110" fill="#111214"/><rect x="197.7" y="486" width="1.7" height="110" fill="#111214"/><rect x="202.9" y="486" width="1.7" height="110" fill="#111214"/><rect x="208" y="486" width="5.1" height="110" fill="#111214"/><rect x="228.6" y="486" width="3.4" height="110" fill="#111214"/><rect x="235.4" y="486" width="3.4" height="110" fill="#111214"/><rect x="240.6" y="486" width="5.1" height="110" fill="#111214"/><rect x="252.6" y="486" width="1.7" height="110" fill="#111214"/><rect x="256" y="486" width="3.4" height="110" fill="#111214"/><rect x="266.3" y="486" width="3.4" height="110" fill="#111214"/><rect x="271.4" y="486" width="1.7" height="110" fill="#111214"/><rect x="274.9" y="486" width="3.4" height="110" fill="#111214"/><rect x="281.7" y="486" width="1.7" height="110" fill="#111214"/><rect x="292" y="486" width="3.4" height="110" fill="#111214"/><rect x="297.1" y="486" width="1.7" height="110" fill="#111214"/><rect x="302.3" y="486" width="5.1" height="110" fill="#111214"/><rect x="309.1" y="486" width="5.1" height="110" fill="#111214"/><rect x="316" y="486" width="1.7" height="110" fill="#111214"/><rect x="319.4" y="486" width="5.1" height="110" fill="#111214"/><rect x="331.4" y="486" width="3.4" height="110" fill="#111214"/><rect x="336.6" y="486" width="3.4" height="110" fill="#111214"/><rect x="343.4" y="486" width="5.1" height="110" fill="#111214"/><rect x="352" y="486" width="3.4" height="110" fill="#111214"/><rect x="357.1" y="486" width="3.4" height="110" fill="#111214"/><rect x="369.1" y="486" width="3.4" height="110" fill="#111214"/><rect x="374.3" y="486" width="5.1" height="110" fill="#111214"/><rect x="388" y="486" width="3.4" height="110" fill="#111214"/><rect x="394.9" y="486" width="1.7" height="110" fill="#111214"/>
      <text x="280" y="622" font-family="'Helvetica Neue', Helvetica, Arial, 'Liberation Sans', 'Nimbus Sans', sans-serif" font-size="18" font-weight="700" fill="#111214" text-anchor="middle" letter-spacing="3">0016 914 302</text>
      <line x1="150" y1="646" x2="410" y2="646" stroke="#8b9096" stroke-width="2" stroke-linecap="butt" stroke-dasharray="6 6"/>
      <text x="150" y="690" font-family="'Helvetica Neue', Helvetica, Arial, 'Liberation Sans', 'Nimbus Sans', sans-serif" font-size="40" font-weight="700" fill="#111214" text-anchor="start">LHR</text>
      <rect x="253.4" y="662" width="1.1" height="50" fill="#111214"/><rect x="255.7" y="662" width="2.3" height="50" fill="#111214"/><rect x="260.3" y="662" width="1.1" height="50" fill="#111214"/><rect x="262.6" y="662" width="1.1" height="50" fill="#111214"/><rect x="266" y="662" width="1.1" height="50" fill="#111214"/><rect x="268.3" y="662" width="1.1" height="50" fill="#111214"/><rect x="271.7" y="662" width="1.1" height="50" fill="#111214"/><rect x="274" y="662" width="1.1" height="50" fill="#111214"/><rect x="276.3" y="662" width="2.3" height="50" fill="#111214"/><rect x="280.9" y="662" width="3.4" height="50" fill="#111214"/><rect x="286.6" y="662" width="3.4" height="50" fill="#111214"/><rect x="295.7" y="662" width="2.3" height="50" fill="#111214"/><rect x="300.3" y="662" width="3.4" height="50" fill="#111214"/><rect x="315.1" y="662" width="3.4" height="50" fill="#111214"/><rect x="319.7" y="662" width="2.3" height="50" fill="#111214"/><rect x="330" y="662" width="1.1" height="50" fill="#111214"/><rect x="336.9" y="662" width="2.3" height="50" fill="#111214"/><rect x="340.3" y="662" width="1.1" height="50" fill="#111214"/><rect x="343.7" y="662" width="3.4" height="50" fill="#111214"/><rect x="348.3" y="662" width="1.1" height="50" fill="#111214"/><rect x="351.7" y="662" width="1.1" height="50" fill="#111214"/><rect x="354" y="662" width="1.1" height="50" fill="#111214"/><rect x="357.4" y="662" width="1.1" height="50" fill="#111214"/><rect x="359.7" y="662" width="1.1" height="50" fill="#111214"/><rect x="363.1" y="662" width="2.3" height="50" fill="#111214"/><rect x="372.3" y="662" width="3.4" height="50" fill="#111214"/><rect x="378" y="662" width="2.3" height="50" fill="#111214"/><rect x="387.1" y="662" width="1.1" height="50" fill="#111214"/><rect x="394" y="662" width="1.1" height="50" fill="#111214"/>
      <text x="150" y="740" font-family="'Helvetica Neue', Helvetica, Arial, 'Liberation Sans', 'Nimbus Sans', sans-serif" font-size="13" font-weight="400" fill="#5f646b" text-anchor="start">Claim check · keep this part</text>
      <rect x="130" y="760" width="300" height="50" fill="#ffcc00"/>
      <text x="280" y="792" font-family="'Helvetica Neue', Helvetica, Arial, 'Liberation Sans', 'Nimbus Sans', sans-serif" font-size="15" font-weight="700" fill="#111214" text-anchor="middle" letter-spacing="2">UA 914 · 07OCT</text>
    </g>
</svg>
