<svg xmlns="http://www.w3.org/2000/svg" viewBox="0 0 780 540" width="780" height="540">
<rect width="780" height="540" fill="#ecebe7"/>
<path d="M-4043.3 -1953.3 L4823.3 -1953.3 L492.3 150.3 L287.7 150.3 Z" fill="#bdbab3"/>
    <path d="M-4043.3 1213.3 L4823.3 1213.3 L492.3 223.4 L287.7 223.4 Z" fill="#ecebe7"/>
    <path d="M-4043.3 1213.3 L-4043.3 -1953.3 L287.7 150.3 L287.7 223.4 Z" fill="#d8d6d0"/>
    <path d="M4823.3 1213.3 L4823.3 -1953.3 L492.3 150.3 L492.3 223.4 Z" fill="#d8d6d0"/>
    <rect x="287.7" y="150.3" width="204.6" height="73.1" fill="#c4c8cc"/>
    <line x1="-1700" y1="808" x2="309.6" y2="223.4" stroke="#bdbab3" stroke-width="1.5" stroke-linecap="butt"/><line x1="-1130" y1="808" x2="331.5" y2="223.4" stroke="#bdbab3" stroke-width="1.5" stroke-linecap="butt"/><line x1="-560" y1="808" x2="353.5" y2="223.4" stroke="#bdbab3" stroke-width="1.5" stroke-linecap="butt"/><line x1="10" y1="808" x2="375.4" y2="223.4" stroke="#bdbab3" stroke-width="1.5" stroke-linecap="butt"/><line x1="580" y1="808" x2="397.3" y2="223.4" stroke="#bdbab3" stroke-width="1.5" stroke-linecap="butt"/><line x1="1150" y1="808" x2="419.2" y2="223.4" stroke="#bdbab3" stroke-width="1.5" stroke-linecap="butt"/><line x1="1720" y1="808" x2="441.2" y2="223.4" stroke="#bdbab3" stroke-width="1.5" stroke-linecap="butt"/><line x1="2290" y1="808" x2="463.1" y2="223.4" stroke="#bdbab3" stroke-width="1.5" stroke-linecap="butt"/><line x1="2860" y1="808" x2="485" y2="223.4" stroke="#bdbab3" stroke-width="1.5" stroke-linecap="butt"/><line x1="-940" y1="504" x2="1720" y2="504" stroke="#bdbab3" stroke-width="1.5" stroke-linecap="butt"/><line x1="-595.2" y1="425.2" x2="1375.2" y2="425.2" stroke="#bdbab3" stroke-width="1.5" stroke-linecap="butt"/><line x1="-339.8" y1="366.8" x2="1119.8" y2="366.8" stroke="#bdbab3" stroke-width="1.5" stroke-linecap="butt"/><line x1="-150.6" y1="323.6" x2="930.6" y2="323.6" stroke="#bdbab3" stroke-width="1.5" stroke-linecap="butt"/><line x1="-10.4" y1="291.5" x2="790.4" y2="291.5" stroke="#bdbab3" stroke-width="1.5" stroke-linecap="butt"/><line x1="93.4" y1="267.8" x2="686.6" y2="267.8" stroke="#bdbab3" stroke-width="1.5" stroke-linecap="butt"/><line x1="170.3" y1="250.2" x2="609.7" y2="250.2" stroke="#bdbab3" stroke-width="1.5" stroke-linecap="butt"/><line x1="227.3" y1="237.2" x2="552.7" y2="237.2" stroke="#bdbab3" stroke-width="1.5" stroke-linecap="butt"/><line x1="269.4" y1="227.6" x2="510.6" y2="227.6" stroke="#bdbab3" stroke-width="1.5" stroke-linecap="butt"/><path d="M-53.3 -230.7 L73.3 -230.7 L152.5 -123 L57.5 -123 Z" fill="#ffffff"/><path d="M706.7 -230.7 L833.3 -230.7 L722.5 -123 L627.5 -123 Z" fill="#ffffff"/><path d="M168.3 -15.3 L231.7 -15.3 L254.3 15.4 L200 15.4 Z" fill="#ffffff"/><path d="M548.3 -15.3 L611.7 -15.3 L580 15.4 L525.7 15.4 Z" fill="#ffffff"/><path d="M242.2 56.4 L284.4 56.4 L295 70.8 L257 70.8 Z" fill="#ffffff"/><path d="M495.6 56.4 L537.8 56.4 L523 70.8 L485 70.8 Z" fill="#ffffff"/><path d="M279.2 92.3 L310.8 92.3 L316.9 100.6 L287.7 100.6 Z" fill="#ffffff"/><path d="M469.2 92.3 L500.8 92.3 L492.3 100.6 L463.1 100.6 Z" fill="#ffffff"/><path d="M301.3 113.9 L326.7 113.9 L330.6 119.3 L306.9 119.3 Z" fill="#ffffff"/><path d="M453.3 113.9 L478.7 113.9 L473.1 119.3 L449.4 119.3 Z" fill="#ffffff"/><path d="M316.1 128.2 L337.2 128.2 L340 132 L320 132 Z" fill="#ffffff"/><path d="M442.8 128.2 L463.9 128.2 L460 132 L440 132 Z" fill="#ffffff"/><path d="M326.7 138.5 L344.8 138.5 L346.8 141.3 L329.5 141.3 Z" fill="#ffffff"/><path d="M435.2 138.5 L453.3 138.5 L450.5 141.3 L433.2 141.3 Z" fill="#ffffff"/>
    <!-- where the bags come out, far away -->
    <g transform="translate(366.6 202.9) scale(0.1462)"><rect x="0" y="0" width="320" height="140" fill="#111214"/><rect x="6" y="6" width="26" height="134" fill="#2a2d31"/><rect x="37" y="6" width="26" height="134" fill="#2a2d31"/><rect x="68" y="6" width="26" height="134" fill="#2a2d31"/><rect x="99" y="6" width="26" height="134" fill="#2a2d31"/><rect x="130" y="6" width="26" height="134" fill="#2a2d31"/><rect x="161" y="6" width="26" height="134" fill="#2a2d31"/><rect x="192" y="6" width="26" height="134" fill="#2a2d31"/><rect x="223" y="6" width="26" height="134" fill="#2a2d31"/><rect x="254" y="6" width="26" height="134" fill="#2a2d31"/><rect x="285" y="6" width="26" height="134" fill="#2a2d31"/></g>
    <!-- people on the far side -->
    <g transform="translate(117.7 187.3) scale(1.1400)"><circle cx="50" cy="13" r="9.5" fill="#1d5fd1"/><path d="M40 26 L60 26 Q66 26 67 32 L76 70 L24 70 L33 32 Q34 26 40 26 Z" fill="#1d5fd1"/><rect x="22" y="28" width="8" height="28" rx="4" transform="rotate(14 26 28)" fill="#1d5fd1"/><rect x="70" y="28" width="8" height="28" rx="4" transform="rotate(-14 74 28)" fill="#1d5fd1"/><rect x="39" y="66" width="9" height="30" rx="4" fill="#1d5fd1"/><rect x="52" y="66" width="9" height="30" rx="4" fill="#1d5fd1"/></g><g transform="translate(243.4 189.1) scale(0.9771)"><circle cx="50" cy="13" r="9.5" fill="#111214"/><rect x="35" y="26" width="30" height="36" rx="7" fill="#111214"/><rect x="25" y="27" width="8" height="32" rx="4" fill="#111214"/><rect x="67" y="27" width="8" height="32" rx="4" fill="#111214"/><rect x="37" y="56" width="11" height="40" rx="4" fill="#111214"/><rect x="52" y="56" width="11" height="40" rx="4" fill="#111214"/></g><g transform="translate(466 188.3) scale(1.0523)"><circle cx="50" cy="13" r="9.5" fill="#5f646b"/><rect x="35" y="26" width="30" height="36" rx="7" fill="#5f646b"/><rect x="25" y="27" width="8" height="32" rx="4" fill="#5f646b"/><rect x="67" y="27" width="8" height="32" rx="4" fill="#5f646b"/><rect x="37" y="56" width="11" height="40" rx="4" fill="#5f646b"/><rect x="52" y="56" width="11" height="40" rx="4" fill="#5f646b"/></g><g transform="translate(600.4 186.4) scale(1.2214)"><circle cx="50" cy="13" r="9.5" fill="#e0322b"/><path d="M40 26 L60 26 Q66 26 67 32 L76 70 L24 70 L33 32 Q34 26 40 26 Z" fill="#e0322b"/><rect x="22" y="28" width="8" height="28" rx="4" transform="rotate(14 26 28)" fill="#e0322b"/><rect x="70" y="28" width="8" height="28" rx="4" transform="rotate(-14 74 28)" fill="#e0322b"/><rect x="39" y="66" width="9" height="30" rx="4" fill="#e0322b"/><rect x="52" y="66" width="9" height="30" rx="4" fill="#e0322b"/></g>
    <!-- the sign -->
    <line x1="320.9" y1="48" x2="320.9" y2="-34.9" stroke="#5f646b" stroke-width="2.7636363636363637" stroke-linecap="butt"/><line x1="459.1" y1="48" x2="459.1" y2="-34.9" stroke="#5f646b" stroke-width="2.7636363636363637" stroke-linecap="butt"/>
    <g transform="translate(224.2 48) scale(0.6909)"><rect x="0" y="0" width="480" height="130" rx="3" fill="#1d5fd1"/><g transform="translate(18 18) scale(0.9)"><g transform="translate(20 0) scale(.6)"><path d="M38 30 V18 Q38 14 42 14 H58 Q62 14 62 18 V30" fill="none" stroke="#ffffff" stroke-width="7"/><rect x="16" y="30" width="68" height="56" rx="7" fill="#ffffff"/><rect x="31" y="30" width="5" height="56" fill="#111214"/><rect x="64" y="30" width="5" height="56" fill="#111214"/><rect x="24" y="86" width="10" height="8" rx="2" fill="#ffffff"/><rect x="66" y="86" width="10" height="8" rx="2" fill="#ffffff"/></g><rect x="4" y="66" width="92" height="14" rx="7" fill="#ffffff"/><circle cx="14" cy="73" r="3" fill="#111214"/><circle cx="32" cy="73" r="3" fill="#111214"/><circle cx="50" cy="73" r="3" fill="#111214"/><circle cx="68" cy="73" r="3" fill="#111214"/><circle cx="86" cy="73" r="3" fill="#111214"/><rect x="14" y="80" width="8" height="16" fill="#ffffff"/><rect x="78" y="80" width="8" height="16" fill="#ffffff"/></g><text x="126" y="60" font-family="'Helvetica Neue', Helvetica, Arial, 'Liberation Sans', 'Nimbus Sans', sans-serif" font-size="30" font-weight="700" fill="#ffffff" text-anchor="start" textLength="230" lengthAdjust="spacingAndGlyphs">Baggage reclaim</text><text x="126" y="98" font-family="'Helvetica Neue', Helvetica, Arial, 'Liberation Sans', 'Nimbus Sans', sans-serif" font-size="24" font-weight="400" fill="#ffffff" text-anchor="start">UA 914 · London</text><rect x="370" y="10" width="100" height="110" rx="3" fill="#ffffff"/><text x="420" y="108" font-family="'Helvetica Neue', Helvetica, Arial, 'Liberation Sans', 'Nimbus Sans', sans-serif" font-size="110" font-weight="700" fill="#1d5fd1" text-anchor="middle">3</text></g>
    <!-- the sloped centre and the belt -->
    <path d="M-633.1 366.6 L1413.1 366.6 L1128.9 263.3 L-348.9 263.3 Z" fill="#c4c8cc"/>
    <path d="M-348.9 263.3 L1128.9 263.3 L1072.1 258.5 L-292.1 258.5 Z" fill="#8b9096"/>
    <path d="M-1272.5 470.8 L2052.5 470.8 L1413.1 366.6 L-633.1 366.6 Z" fill="#111214"/>
    <line x1="-1035" y1="470.8" x2="-486.9" y2="366.6" stroke="#000" stroke-width="1.2" stroke-linecap="butt" opacity="0.55"/><line x1="-928.1" y1="470.8" x2="-421.2" y2="366.6" stroke="#000" stroke-width="1.2" stroke-linecap="butt" opacity="0.55"/><line x1="-821.2" y1="470.8" x2="-355.4" y2="366.6" stroke="#000" stroke-width="1.2" stroke-linecap="butt" opacity="0.55"/><line x1="-714.4" y1="470.8" x2="-289.6" y2="366.6" stroke="#000" stroke-width="1.2" stroke-linecap="butt" opacity="0.55"/><line x1="-607.5" y1="470.8" x2="-223.8" y2="366.6" stroke="#000" stroke-width="1.2" stroke-linecap="butt" opacity="0.55"/><line x1="-500.6" y1="470.8" x2="-158.1" y2="366.6" stroke="#000" stroke-width="1.2" stroke-linecap="butt" opacity="0.55"/><line x1="-393.7" y1="470.8" x2="-92.3" y2="366.6" stroke="#000" stroke-width="1.2" stroke-linecap="butt" opacity="0.55"/><line x1="-286.9" y1="470.8" x2="-26.5" y2="366.6" stroke="#000" stroke-width="1.2" stroke-linecap="butt" opacity="0.55"/><line x1="-180" y1="470.8" x2="39.2" y2="366.6" stroke="#000" stroke-width="1.2" stroke-linecap="butt" opacity="0.55"/><line x1="-73.1" y1="470.8" x2="105" y2="366.6" stroke="#000" stroke-width="1.2" stroke-linecap="butt" opacity="0.55"/><line x1="33.8" y1="470.8" x2="170.8" y2="366.6" stroke="#000" stroke-width="1.2" stroke-linecap="butt" opacity="0.55"/><line x1="140.6" y1="470.8" x2="236.5" y2="366.6" stroke="#000" stroke-width="1.2" stroke-linecap="butt" opacity="0.55"/><line x1="247.5" y1="470.8" x2="302.3" y2="366.6" stroke="#000" stroke-width="1.2" stroke-linecap="butt" opacity="0.55"/><line x1="354.4" y1="470.8" x2="368.1" y2="366.6" stroke="#000" stroke-width="1.2" stroke-linecap="butt" opacity="0.55"/><line x1="461.3" y1="470.8" x2="433.8" y2="366.6" stroke="#000" stroke-width="1.2" stroke-linecap="butt" opacity="0.55"/><line x1="568.1" y1="470.8" x2="499.6" y2="366.6" stroke="#000" stroke-width="1.2" stroke-linecap="butt" opacity="0.55"/><line x1="675" y1="470.8" x2="565.4" y2="366.6" stroke="#000" stroke-width="1.2" stroke-linecap="butt" opacity="0.55"/><line x1="781.9" y1="470.8" x2="631.2" y2="366.6" stroke="#000" stroke-width="1.2" stroke-linecap="butt" opacity="0.55"/><line x1="888.8" y1="470.8" x2="696.9" y2="366.6" stroke="#000" stroke-width="1.2" stroke-linecap="butt" opacity="0.55"/><line x1="995.6" y1="470.8" x2="762.7" y2="366.6" stroke="#000" stroke-width="1.2" stroke-linecap="butt" opacity="0.55"/><line x1="1102.5" y1="470.8" x2="828.5" y2="366.6" stroke="#000" stroke-width="1.2" stroke-linecap="butt" opacity="0.55"/><line x1="1209.4" y1="470.8" x2="894.2" y2="366.6" stroke="#000" stroke-width="1.2" stroke-linecap="butt" opacity="0.55"/><line x1="1316.3" y1="470.8" x2="960" y2="366.6" stroke="#000" stroke-width="1.2" stroke-linecap="butt" opacity="0.55"/><line x1="1423.1" y1="470.8" x2="1025.8" y2="366.6" stroke="#000" stroke-width="1.2" stroke-linecap="butt" opacity="0.55"/><line x1="1530" y1="470.8" x2="1091.5" y2="366.6" stroke="#000" stroke-width="1.2" stroke-linecap="butt" opacity="0.55"/><line x1="1636.9" y1="470.8" x2="1157.3" y2="366.6" stroke="#000" stroke-width="1.2" stroke-linecap="butt" opacity="0.55"/><line x1="1743.8" y1="470.8" x2="1223.1" y2="366.6" stroke="#000" stroke-width="1.2" stroke-linecap="butt" opacity="0.55"/>
    <g transform="translate(-231.8 324.4) scale(1.7273)"><rect x="0" y="0" width="75" height="42" rx="10" fill="#e0322b"/><rect x="21.5" y="-12" width="32" height="14" rx="4" fill="none" stroke="#111214" stroke-width="5"/></g><g transform="translate(10 325.6) scale(1.6522)"><rect x="0" y="0" width="55" height="38" rx="10" fill="#111214"/><rect x="11.5" y="-12" width="32" height="14" rx="4" fill="none" stroke="#111214" stroke-width="5"/></g><g transform="translate(227.1 319.4) scale(1.8095)"><rect x="0" y="0" width="85" height="48" rx="10" fill="#1d5fd1"/><rect x="26.5" y="-12" width="32" height="14" rx="4" fill="none" stroke="#111214" stroke-width="5"/><rect x="30" y="8" width="26" height="34" rx="3" fill="#ffffff"/><text x="43" y="30" font-family="'Helvetica Neue', Helvetica, Arial, 'Liberation Sans', 'Nimbus Sans', sans-serif" font-size="9" font-weight="700" fill="#111214" text-anchor="middle">LHR</text></g><g transform="translate(476.4 327.8) scale(1.7273)"><rect x="0" y="0" width="60" height="40" rx="10" fill="#ffcc00"/><rect x="14" y="-12" width="32" height="14" rx="4" fill="none" stroke="#111214" stroke-width="5"/></g><g transform="translate(670.9 314) scale(1.6522)"><rect x="0" y="0" width="80" height="45" rx="10" fill="#1f9d55"/><rect x="24" y="-12" width="32" height="14" rx="4" fill="none" stroke="#111214" stroke-width="5"/></g><g transform="translate(942.7 324.4) scale(1.7273)"><rect x="0" y="0" width="70" height="42" rx="10" fill="#5f646b"/><rect x="19" y="-12" width="32" height="14" rx="4" fill="none" stroke="#111214" stroke-width="5"/></g>
    <!-- the steel lip right in front of you -->
    <path d="M-1272.5 470.8 L2052.5 470.8 L2052.5 580 L-1272.5 580 Z" fill="#8b9096"/>
    <path d="M-1383.3 478.7 L2163.3 478.7 L2052.5 470.8 L-1272.5 470.8 Z" fill="#c4c8cc"/>
</svg>
