<svg xmlns="http://www.w3.org/2000/svg" viewBox="0 0 780 520" width="780" height="520">
<rect width="780" height="520" fill="#ecebe7"/>
<path d="M-3640 -5350 L5026.7 -5350 L430 166 L300 166 Z" fill="#f3f3f1"/>
    <path d="M-3640 1316.7 L5026.7 1316.7 L430 266 L300 266 Z" fill="#ecebe7"/>
    <path d="M-3640 1316.7 L-3640 -5350 L300 166 L300 266 Z" fill="#d8d6d0"/>
    <path d="M5026.7 1316.7 L5026.7 -5350 L430 166 L430 266 Z" fill="#d8d6d0"/>
    <rect x="300" y="166" width="130" height="100" fill="#a9c3cf"/>
    <!-- daylight: a glass wall on the left and at the far end, a tail fin outside -->
    <path d="M-3640 1316.7 L-3640 -5350 L300 166 L300 266 Z" fill="#a9c3cf"/><line x1="-2040" y1="890" x2="-2040" y2="-3110" stroke="#7d9eae" stroke-width="32" stroke-linecap="butt"/><line x1="-325.7" y1="432.9" x2="-325.7" y2="-710" stroke="#7d9eae" stroke-width="9.142857142857144" stroke-linecap="butt"/><line x1="-40" y1="356.7" x2="-40" y2="-310" stroke="#7d9eae" stroke-width="5.333333333333334" stroke-linecap="butt"/><line x1="77.6" y1="325.3" x2="77.6" y2="-145.3" stroke="#7d9eae" stroke-width="3.7647058823529416" stroke-linecap="butt"/><line x1="141.8" y1="308.2" x2="141.8" y2="-55.5" stroke="#7d9eae" stroke-width="2.9090909090909096" stroke-linecap="butt"/><line x1="182.2" y1="297.4" x2="182.2" y2="1.1" stroke="#7d9eae" stroke-width="2.3703703703703702" stroke-linecap="butt"/><line x1="210" y1="290" x2="210" y2="40" stroke="#7d9eae" stroke-width="2" stroke-linecap="butt"/><line x1="230.3" y1="284.6" x2="230.3" y2="68.4" stroke="#7d9eae" stroke-width="1.7297297297297298" stroke-linecap="butt"/><line x1="245.7" y1="280.5" x2="245.7" y2="90" stroke="#7d9eae" stroke-width="1.5238095238095237" stroke-linecap="butt"/><line x1="257.9" y1="277.2" x2="257.9" y2="107" stroke="#7d9eae" stroke-width="1.5" stroke-linecap="butt"/><line x1="267.7" y1="274.6" x2="267.7" y2="120.8" stroke="#7d9eae" stroke-width="1.5" stroke-linecap="butt"/><line x1="275.8" y1="272.5" x2="275.8" y2="132.1" stroke="#7d9eae" stroke-width="1.5" stroke-linecap="butt"/><line x1="282.6" y1="270.6" x2="282.6" y2="141.6" stroke="#7d9eae" stroke-width="1.5" stroke-linecap="butt"/><line x1="288.4" y1="269.1" x2="288.4" y2="149.7" stroke="#7d9eae" stroke-width="1.5" stroke-linecap="butt"/><line x1="293.3" y1="267.8" x2="293.3" y2="156.7" stroke="#7d9eae" stroke-width="1.5" stroke-linecap="butt"/><line x1="297.7" y1="266.6" x2="297.7" y2="162.7" stroke="#7d9eae" stroke-width="1.5" stroke-linecap="butt"/><path d="M-3640 -550 L-3640 -650 L300 236.5 L300 238 Z" fill="#7d9eae"/>
    <g transform="translate(300 166) scale(0.1000)"><rect x="0" y="760" width="1300" height="240" fill="#3a3d42"/><path d="M820 760 L880 520 L940 520 L960 760 Z" fill="#1d5fd1"/><rect x="-4" y="0" width="8" height="1000" fill="#7d9eae"/><rect x="146" y="0" width="8" height="1000" fill="#7d9eae"/><rect x="296" y="0" width="8" height="1000" fill="#7d9eae"/><rect x="446" y="0" width="8" height="1000" fill="#7d9eae"/><rect x="596" y="0" width="8" height="1000" fill="#7d9eae"/><rect x="746" y="0" width="8" height="1000" fill="#7d9eae"/><rect x="896" y="0" width="8" height="1000" fill="#7d9eae"/><rect x="1046" y="0" width="8" height="1000" fill="#7d9eae"/><rect x="1196" y="0" width="8" height="1000" fill="#7d9eae"/><rect x="0" y="300" width="1300" height="10" fill="#7d9eae"/><rect x="0" y="620" width="1300" height="10" fill="#7d9eae"/></g>
    <line x1="-1040" y1="890" x2="325" y2="266" stroke="#bdbab3" stroke-width="1.5" stroke-linecap="butt"/><line x1="-40" y1="890" x2="350" y2="266" stroke="#bdbab3" stroke-width="1.5" stroke-linecap="butt"/><line x1="960" y1="890" x2="375" y2="266" stroke="#bdbab3" stroke-width="1.5" stroke-linecap="butt"/><line x1="1960" y1="890" x2="400" y2="266" stroke="#bdbab3" stroke-width="1.5" stroke-linecap="butt"/><line x1="2960" y1="890" x2="425" y2="266" stroke="#bdbab3" stroke-width="1.5" stroke-linecap="butt"/><line x1="-840" y1="570" x2="1760" y2="570" stroke="#bdbab3" stroke-width="1.5" stroke-linecap="butt"/><line x1="-528.9" y1="487" x2="1397" y2="487" stroke="#bdbab3" stroke-width="1.5" stroke-linecap="butt"/><line x1="-298.4" y1="425.6" x2="1128.2" y2="425.6" stroke="#bdbab3" stroke-width="1.5" stroke-linecap="butt"/><line x1="-127.7" y1="380.1" x2="929" y2="380.1" stroke="#bdbab3" stroke-width="1.5" stroke-linecap="butt"/><line x1="-1.3" y1="346.3" x2="781.5" y2="346.3" stroke="#bdbab3" stroke-width="1.5" stroke-linecap="butt"/><line x1="92.4" y1="321.4" x2="672.2" y2="321.4" stroke="#bdbab3" stroke-width="1.5" stroke-linecap="butt"/><line x1="161.8" y1="302.9" x2="591.3" y2="302.9" stroke="#bdbab3" stroke-width="1.5" stroke-linecap="butt"/><line x1="213.2" y1="289.2" x2="531.3" y2="289.2" stroke="#bdbab3" stroke-width="1.5" stroke-linecap="butt"/><line x1="251.2" y1="279" x2="486.9" y2="279" stroke="#bdbab3" stroke-width="1.5" stroke-linecap="butt"/><line x1="279.4" y1="271.5" x2="454" y2="271.5" stroke="#bdbab3" stroke-width="1.5" stroke-linecap="butt"/><line x1="-440" y1="-870" x2="1293.3" y2="-870" stroke="#5f646b" stroke-width="16" stroke-linecap="butt"/><line x1="-440" y1="-736.7" x2="1293.3" y2="-736.7" stroke="#5f646b" stroke-width="9.6" stroke-linecap="butt"/><line x1="-440" y1="-870" x2="-306.7" y2="-736.7" stroke="#5f646b" stroke-width="6.4" stroke-linecap="butt"/><line x1="-306.7" y1="-736.7" x2="-173.3" y2="-870" stroke="#5f646b" stroke-width="6.4" stroke-linecap="butt"/><line x1="-173.3" y1="-870" x2="-40" y2="-736.7" stroke="#5f646b" stroke-width="6.4" stroke-linecap="butt"/><line x1="-40" y1="-736.7" x2="93.3" y2="-870" stroke="#5f646b" stroke-width="6.4" stroke-linecap="butt"/><line x1="93.3" y1="-870" x2="226.7" y2="-736.7" stroke="#5f646b" stroke-width="6.4" stroke-linecap="butt"/><line x1="226.7" y1="-736.7" x2="360" y2="-870" stroke="#5f646b" stroke-width="6.4" stroke-linecap="butt"/><line x1="360" y1="-870" x2="493.3" y2="-736.7" stroke="#5f646b" stroke-width="6.4" stroke-linecap="butt"/><line x1="493.3" y1="-736.7" x2="626.7" y2="-870" stroke="#5f646b" stroke-width="6.4" stroke-linecap="butt"/><line x1="626.7" y1="-870" x2="760" y2="-736.7" stroke="#5f646b" stroke-width="6.4" stroke-linecap="butt"/><line x1="760" y1="-736.7" x2="893.3" y2="-870" stroke="#5f646b" stroke-width="6.4" stroke-linecap="butt"/><line x1="893.3" y1="-870" x2="1026.7" y2="-736.7" stroke="#5f646b" stroke-width="6.4" stroke-linecap="butt"/><line x1="1026.7" y1="-736.7" x2="1160" y2="-870" stroke="#5f646b" stroke-width="6.4" stroke-linecap="butt"/><line x1="1160" y1="-870" x2="1293.3" y2="-736.7" stroke="#5f646b" stroke-width="6.4" stroke-linecap="butt"/><line x1="1293.3" y1="-736.7" x2="1426.7" y2="-870" stroke="#5f646b" stroke-width="6.4" stroke-linecap="butt"/><line x1="17.1" y1="-230" x2="760" y2="-230" stroke="#5f646b" stroke-width="6.857142857142858" stroke-linecap="butt"/><line x1="17.1" y1="-172.9" x2="760" y2="-172.9" stroke="#5f646b" stroke-width="4.114285714285715" stroke-linecap="butt"/><line x1="17.1" y1="-230" x2="74.3" y2="-172.9" stroke="#5f646b" stroke-width="2.7428571428571433" stroke-linecap="butt"/><line x1="74.3" y1="-172.9" x2="131.4" y2="-230" stroke="#5f646b" stroke-width="2.7428571428571433" stroke-linecap="butt"/><line x1="131.4" y1="-230" x2="188.6" y2="-172.9" stroke="#5f646b" stroke-width="2.7428571428571433" stroke-linecap="butt"/><line x1="188.6" y1="-172.9" x2="245.7" y2="-230" stroke="#5f646b" stroke-width="2.7428571428571433" stroke-linecap="butt"/><line x1="245.7" y1="-230" x2="302.9" y2="-172.9" stroke="#5f646b" stroke-width="2.7428571428571433" stroke-linecap="butt"/><line x1="302.9" y1="-172.9" x2="360" y2="-230" stroke="#5f646b" stroke-width="2.7428571428571433" stroke-linecap="butt"/><line x1="360" y1="-230" x2="417.1" y2="-172.9" stroke="#5f646b" stroke-width="2.7428571428571433" stroke-linecap="butt"/><line x1="417.1" y1="-172.9" x2="474.3" y2="-230" stroke="#5f646b" stroke-width="2.7428571428571433" stroke-linecap="butt"/><line x1="474.3" y1="-230" x2="531.4" y2="-172.9" stroke="#5f646b" stroke-width="2.7428571428571433" stroke-linecap="butt"/><line x1="531.4" y1="-172.9" x2="588.6" y2="-230" stroke="#5f646b" stroke-width="2.7428571428571433" stroke-linecap="butt"/><line x1="588.6" y1="-230" x2="645.7" y2="-172.9" stroke="#5f646b" stroke-width="2.7428571428571433" stroke-linecap="butt"/><line x1="645.7" y1="-172.9" x2="702.9" y2="-230" stroke="#5f646b" stroke-width="2.7428571428571433" stroke-linecap="butt"/><line x1="702.9" y1="-230" x2="760" y2="-172.9" stroke="#5f646b" stroke-width="2.7428571428571433" stroke-linecap="butt"/><line x1="760" y1="-172.9" x2="817.1" y2="-230" stroke="#5f646b" stroke-width="2.7428571428571433" stroke-linecap="butt"/><line x1="141.8" y1="-55.5" x2="614.5" y2="-55.5" stroke="#5f646b" stroke-width="4.363636363636364" stroke-linecap="butt"/><line x1="141.8" y1="-19.1" x2="614.5" y2="-19.1" stroke="#5f646b" stroke-width="2.6181818181818186" stroke-linecap="butt"/><line x1="141.8" y1="-55.5" x2="178.2" y2="-19.1" stroke="#5f646b" stroke-width="1.7454545454545458" stroke-linecap="butt"/><line x1="178.2" y1="-19.1" x2="214.5" y2="-55.5" stroke="#5f646b" stroke-width="1.7454545454545458" stroke-linecap="butt"/><line x1="214.5" y1="-55.5" x2="250.9" y2="-19.1" stroke="#5f646b" stroke-width="1.7454545454545458" stroke-linecap="butt"/><line x1="250.9" y1="-19.1" x2="287.3" y2="-55.5" stroke="#5f646b" stroke-width="1.7454545454545458" stroke-linecap="butt"/><line x1="287.3" y1="-55.5" x2="323.6" y2="-19.1" stroke="#5f646b" stroke-width="1.7454545454545458" stroke-linecap="butt"/><line x1="323.6" y1="-19.1" x2="360" y2="-55.5" stroke="#5f646b" stroke-width="1.7454545454545458" stroke-linecap="butt"/><line x1="360" y1="-55.5" x2="396.4" y2="-19.1" stroke="#5f646b" stroke-width="1.7454545454545458" stroke-linecap="butt"/><line x1="396.4" y1="-19.1" x2="432.7" y2="-55.5" stroke="#5f646b" stroke-width="1.7454545454545458" stroke-linecap="butt"/><line x1="432.7" y1="-55.5" x2="469.1" y2="-19.1" stroke="#5f646b" stroke-width="1.7454545454545458" stroke-linecap="butt"/><line x1="469.1" y1="-19.1" x2="505.5" y2="-55.5" stroke="#5f646b" stroke-width="1.7454545454545458" stroke-linecap="butt"/><line x1="505.5" y1="-55.5" x2="541.8" y2="-19.1" stroke="#5f646b" stroke-width="1.7454545454545458" stroke-linecap="butt"/><line x1="541.8" y1="-19.1" x2="578.2" y2="-55.5" stroke="#5f646b" stroke-width="1.7454545454545458" stroke-linecap="butt"/><line x1="578.2" y1="-55.5" x2="614.5" y2="-19.1" stroke="#5f646b" stroke-width="1.7454545454545458" stroke-linecap="butt"/><line x1="614.5" y1="-19.1" x2="650.9" y2="-55.5" stroke="#5f646b" stroke-width="1.7454545454545458" stroke-linecap="butt"/><line x1="200" y1="26" x2="546.7" y2="26" stroke="#5f646b" stroke-width="3.2" stroke-linecap="butt"/><line x1="200" y1="52.7" x2="546.7" y2="52.7" stroke="#5f646b" stroke-width="1.92" stroke-linecap="butt"/><line x1="200" y1="26" x2="226.7" y2="52.7" stroke="#5f646b" stroke-width="1.2800000000000002" stroke-linecap="butt"/><line x1="226.7" y1="52.7" x2="253.3" y2="26" stroke="#5f646b" stroke-width="1.2800000000000002" stroke-linecap="butt"/><line x1="253.3" y1="26" x2="280" y2="52.7" stroke="#5f646b" stroke-width="1.2800000000000002" stroke-linecap="butt"/><line x1="280" y1="52.7" x2="306.7" y2="26" stroke="#5f646b" stroke-width="1.2800000000000002" stroke-linecap="butt"/><line x1="306.7" y1="26" x2="333.3" y2="52.7" stroke="#5f646b" stroke-width="1.2800000000000002" stroke-linecap="butt"/><line x1="333.3" y1="52.7" x2="360" y2="26" stroke="#5f646b" stroke-width="1.2800000000000002" stroke-linecap="butt"/><line x1="360" y1="26" x2="386.7" y2="52.7" stroke="#5f646b" stroke-width="1.2800000000000002" stroke-linecap="butt"/><line x1="386.7" y1="52.7" x2="413.3" y2="26" stroke="#5f646b" stroke-width="1.2800000000000002" stroke-linecap="butt"/><line x1="413.3" y1="26" x2="440" y2="52.7" stroke="#5f646b" stroke-width="1.2800000000000002" stroke-linecap="butt"/><line x1="440" y1="52.7" x2="466.7" y2="26" stroke="#5f646b" stroke-width="1.2800000000000002" stroke-linecap="butt"/><line x1="466.7" y1="26" x2="493.3" y2="52.7" stroke="#5f646b" stroke-width="1.2800000000000002" stroke-linecap="butt"/><line x1="493.3" y1="52.7" x2="520" y2="26" stroke="#5f646b" stroke-width="1.2800000000000002" stroke-linecap="butt"/><line x1="520" y1="26" x2="546.7" y2="52.7" stroke="#5f646b" stroke-width="1.2800000000000002" stroke-linecap="butt"/><line x1="546.7" y1="52.7" x2="573.3" y2="26" stroke="#5f646b" stroke-width="1.2800000000000002" stroke-linecap="butt"/><line x1="233.7" y1="73.2" x2="507.4" y2="73.2" stroke="#5f646b" stroke-width="2.5263157894736845" stroke-linecap="butt"/><line x1="233.7" y1="94.2" x2="507.4" y2="94.2" stroke="#5f646b" stroke-width="1.5157894736842106" stroke-linecap="butt"/><line x1="233.7" y1="73.2" x2="254.7" y2="94.2" stroke="#5f646b" stroke-width="1.010526315789474" stroke-linecap="butt"/><line x1="254.7" y1="94.2" x2="275.8" y2="73.2" stroke="#5f646b" stroke-width="1.010526315789474" stroke-linecap="butt"/><line x1="275.8" y1="73.2" x2="296.8" y2="94.2" stroke="#5f646b" stroke-width="1.010526315789474" stroke-linecap="butt"/><line x1="296.8" y1="94.2" x2="317.9" y2="73.2" stroke="#5f646b" stroke-width="1.010526315789474" stroke-linecap="butt"/><line x1="317.9" y1="73.2" x2="338.9" y2="94.2" stroke="#5f646b" stroke-width="1.010526315789474" stroke-linecap="butt"/><line x1="338.9" y1="94.2" x2="360" y2="73.2" stroke="#5f646b" stroke-width="1.010526315789474" stroke-linecap="butt"/><line x1="360" y1="73.2" x2="381.1" y2="94.2" stroke="#5f646b" stroke-width="1.010526315789474" stroke-linecap="butt"/><line x1="381.1" y1="94.2" x2="402.1" y2="73.2" stroke="#5f646b" stroke-width="1.010526315789474" stroke-linecap="butt"/><line x1="402.1" y1="73.2" x2="423.2" y2="94.2" stroke="#5f646b" stroke-width="1.010526315789474" stroke-linecap="butt"/><line x1="423.2" y1="94.2" x2="444.2" y2="73.2" stroke="#5f646b" stroke-width="1.010526315789474" stroke-linecap="butt"/><line x1="444.2" y1="73.2" x2="465.3" y2="94.2" stroke="#5f646b" stroke-width="1.010526315789474" stroke-linecap="butt"/><line x1="465.3" y1="94.2" x2="486.3" y2="73.2" stroke="#5f646b" stroke-width="1.010526315789474" stroke-linecap="butt"/><line x1="486.3" y1="73.2" x2="507.4" y2="94.2" stroke="#5f646b" stroke-width="1.010526315789474" stroke-linecap="butt"/><line x1="507.4" y1="94.2" x2="528.4" y2="73.2" stroke="#5f646b" stroke-width="1.010526315789474" stroke-linecap="butt"/><line x1="255.7" y1="103.9" x2="481.7" y2="103.9" stroke="#5f646b" stroke-width="2.0869565217391304" stroke-linecap="butt"/><line x1="255.7" y1="121.3" x2="481.7" y2="121.3" stroke="#5f646b" stroke-width="1.2521739130434781" stroke-linecap="butt"/><line x1="255.7" y1="103.9" x2="273" y2="121.3" stroke="#5f646b" stroke-width="0.8347826086956522" stroke-linecap="butt"/><line x1="273" y1="121.3" x2="290.4" y2="103.9" stroke="#5f646b" stroke-width="0.8347826086956522" stroke-linecap="butt"/><line x1="290.4" y1="103.9" x2="307.8" y2="121.3" stroke="#5f646b" stroke-width="0.8347826086956522" stroke-linecap="butt"/><line x1="307.8" y1="121.3" x2="325.2" y2="103.9" stroke="#5f646b" stroke-width="0.8347826086956522" stroke-linecap="butt"/><line x1="325.2" y1="103.9" x2="342.6" y2="121.3" stroke="#5f646b" stroke-width="0.8347826086956522" stroke-linecap="butt"/><line x1="342.6" y1="121.3" x2="360" y2="103.9" stroke="#5f646b" stroke-width="0.8347826086956522" stroke-linecap="butt"/><line x1="360" y1="103.9" x2="377.4" y2="121.3" stroke="#5f646b" stroke-width="0.8347826086956522" stroke-linecap="butt"/><line x1="377.4" y1="121.3" x2="394.8" y2="103.9" stroke="#5f646b" stroke-width="0.8347826086956522" stroke-linecap="butt"/><line x1="394.8" y1="103.9" x2="412.2" y2="121.3" stroke="#5f646b" stroke-width="0.8347826086956522" stroke-linecap="butt"/><line x1="412.2" y1="121.3" x2="429.6" y2="103.9" stroke="#5f646b" stroke-width="0.8347826086956522" stroke-linecap="butt"/><line x1="429.6" y1="103.9" x2="447" y2="121.3" stroke="#5f646b" stroke-width="0.8347826086956522" stroke-linecap="butt"/><line x1="447" y1="121.3" x2="464.3" y2="103.9" stroke="#5f646b" stroke-width="0.8347826086956522" stroke-linecap="butt"/><line x1="464.3" y1="103.9" x2="481.7" y2="121.3" stroke="#5f646b" stroke-width="0.8347826086956522" stroke-linecap="butt"/><line x1="481.7" y1="121.3" x2="499.1" y2="103.9" stroke="#5f646b" stroke-width="0.8347826086956522" stroke-linecap="butt"/><line x1="271.1" y1="125.6" x2="463.7" y2="125.6" stroke="#5f646b" stroke-width="1.7777777777777777" stroke-linecap="butt"/><line x1="271.1" y1="140.4" x2="463.7" y2="140.4" stroke="#5f646b" stroke-width="1.0666666666666667" stroke-linecap="butt"/><line x1="271.1" y1="125.6" x2="285.9" y2="140.4" stroke="#5f646b" stroke-width="0.7111111111111111" stroke-linecap="butt"/><line x1="285.9" y1="140.4" x2="300.7" y2="125.6" stroke="#5f646b" stroke-width="0.7111111111111111" stroke-linecap="butt"/><line x1="300.7" y1="125.6" x2="315.6" y2="140.4" stroke="#5f646b" stroke-width="0.7111111111111111" stroke-linecap="butt"/><line x1="315.6" y1="140.4" x2="330.4" y2="125.6" stroke="#5f646b" stroke-width="0.7111111111111111" stroke-linecap="butt"/><line x1="330.4" y1="125.6" x2="345.2" y2="140.4" stroke="#5f646b" stroke-width="0.7111111111111111" stroke-linecap="butt"/><line x1="345.2" y1="140.4" x2="360" y2="125.6" stroke="#5f646b" stroke-width="0.7111111111111111" stroke-linecap="butt"/><line x1="360" y1="125.6" x2="374.8" y2="140.4" stroke="#5f646b" stroke-width="0.7111111111111111" stroke-linecap="butt"/><line x1="374.8" y1="140.4" x2="389.6" y2="125.6" stroke="#5f646b" stroke-width="0.7111111111111111" stroke-linecap="butt"/><line x1="389.6" y1="125.6" x2="404.4" y2="140.4" stroke="#5f646b" stroke-width="0.7111111111111111" stroke-linecap="butt"/><line x1="404.4" y1="140.4" x2="419.3" y2="125.6" stroke="#5f646b" stroke-width="0.7111111111111111" stroke-linecap="butt"/><line x1="419.3" y1="125.6" x2="434.1" y2="140.4" stroke="#5f646b" stroke-width="0.7111111111111111" stroke-linecap="butt"/><line x1="434.1" y1="140.4" x2="448.9" y2="125.6" stroke="#5f646b" stroke-width="0.7111111111111111" stroke-linecap="butt"/><line x1="448.9" y1="125.6" x2="463.7" y2="140.4" stroke="#5f646b" stroke-width="0.7111111111111111" stroke-linecap="butt"/><line x1="463.7" y1="140.4" x2="478.5" y2="125.6" stroke="#5f646b" stroke-width="0.7111111111111111" stroke-linecap="butt"/><line x1="282.6" y1="141.6" x2="450.3" y2="141.6" stroke="#5f646b" stroke-width="1.5483870967741935" stroke-linecap="butt"/><line x1="282.6" y1="154.5" x2="450.3" y2="154.5" stroke="#5f646b" stroke-width="0.9290322580645161" stroke-linecap="butt"/><line x1="282.6" y1="141.6" x2="295.5" y2="154.5" stroke="#5f646b" stroke-width="0.6193548387096774" stroke-linecap="butt"/><line x1="295.5" y1="154.5" x2="308.4" y2="141.6" stroke="#5f646b" stroke-width="0.6193548387096774" stroke-linecap="butt"/><line x1="308.4" y1="141.6" x2="321.3" y2="154.5" stroke="#5f646b" stroke-width="0.6193548387096774" stroke-linecap="butt"/><line x1="321.3" y1="154.5" x2="334.2" y2="141.6" stroke="#5f646b" stroke-width="0.6193548387096774" stroke-linecap="butt"/><line x1="334.2" y1="141.6" x2="347.1" y2="154.5" stroke="#5f646b" stroke-width="0.6193548387096774" stroke-linecap="butt"/><line x1="347.1" y1="154.5" x2="360" y2="141.6" stroke="#5f646b" stroke-width="0.6193548387096774" stroke-linecap="butt"/><line x1="360" y1="141.6" x2="372.9" y2="154.5" stroke="#5f646b" stroke-width="0.6193548387096774" stroke-linecap="butt"/><line x1="372.9" y1="154.5" x2="385.8" y2="141.6" stroke="#5f646b" stroke-width="0.6193548387096774" stroke-linecap="butt"/><line x1="385.8" y1="141.6" x2="398.7" y2="154.5" stroke="#5f646b" stroke-width="0.6193548387096774" stroke-linecap="butt"/><line x1="398.7" y1="154.5" x2="411.6" y2="141.6" stroke="#5f646b" stroke-width="0.6193548387096774" stroke-linecap="butt"/><line x1="411.6" y1="141.6" x2="424.5" y2="154.5" stroke="#5f646b" stroke-width="0.6193548387096774" stroke-linecap="butt"/><line x1="424.5" y1="154.5" x2="437.4" y2="141.6" stroke="#5f646b" stroke-width="0.6193548387096774" stroke-linecap="butt"/><line x1="437.4" y1="141.6" x2="450.3" y2="154.5" stroke="#5f646b" stroke-width="0.6193548387096774" stroke-linecap="butt"/><line x1="450.3" y1="154.5" x2="463.2" y2="141.6" stroke="#5f646b" stroke-width="0.6193548387096774" stroke-linecap="butt"/><line x1="291.4" y1="154" x2="440" y2="154" stroke="#5f646b" stroke-width="1.5" stroke-linecap="butt"/><line x1="291.4" y1="165.4" x2="440" y2="165.4" stroke="#5f646b" stroke-width="0.8999999999999999" stroke-linecap="butt"/><line x1="291.4" y1="154" x2="302.9" y2="165.4" stroke="#5f646b" stroke-width="0.6000000000000001" stroke-linecap="butt"/><line x1="302.9" y1="165.4" x2="314.3" y2="154" stroke="#5f646b" stroke-width="0.6000000000000001" stroke-linecap="butt"/><line x1="314.3" y1="154" x2="325.7" y2="165.4" stroke="#5f646b" stroke-width="0.6000000000000001" stroke-linecap="butt"/><line x1="325.7" y1="165.4" x2="337.1" y2="154" stroke="#5f646b" stroke-width="0.6000000000000001" stroke-linecap="butt"/><line x1="337.1" y1="154" x2="348.6" y2="165.4" stroke="#5f646b" stroke-width="0.6000000000000001" stroke-linecap="butt"/><line x1="348.6" y1="165.4" x2="360" y2="154" stroke="#5f646b" stroke-width="0.6000000000000001" stroke-linecap="butt"/><line x1="360" y1="154" x2="371.4" y2="165.4" stroke="#5f646b" stroke-width="0.6000000000000001" stroke-linecap="butt"/><line x1="371.4" y1="165.4" x2="382.9" y2="154" stroke="#5f646b" stroke-width="0.6000000000000001" stroke-linecap="butt"/><line x1="382.9" y1="154" x2="394.3" y2="165.4" stroke="#5f646b" stroke-width="0.6000000000000001" stroke-linecap="butt"/><line x1="394.3" y1="165.4" x2="405.7" y2="154" stroke="#5f646b" stroke-width="0.6000000000000001" stroke-linecap="butt"/><line x1="405.7" y1="154" x2="417.1" y2="165.4" stroke="#5f646b" stroke-width="0.6000000000000001" stroke-linecap="butt"/><line x1="417.1" y1="165.4" x2="428.6" y2="154" stroke="#5f646b" stroke-width="0.6000000000000001" stroke-linecap="butt"/><line x1="428.6" y1="154" x2="440" y2="165.4" stroke="#5f646b" stroke-width="0.6000000000000001" stroke-linecap="butt"/><line x1="440" y1="165.4" x2="451.4" y2="154" stroke="#5f646b" stroke-width="0.6000000000000001" stroke-linecap="butt"/><line x1="298.5" y1="163.8" x2="431.8" y2="163.8" stroke="#5f646b" stroke-width="1.5" stroke-linecap="butt"/><line x1="298.5" y1="174.1" x2="431.8" y2="174.1" stroke="#5f646b" stroke-width="0.8999999999999999" stroke-linecap="butt"/><line x1="298.5" y1="163.8" x2="308.7" y2="174.1" stroke="#5f646b" stroke-width="0.6000000000000001" stroke-linecap="butt"/><line x1="308.7" y1="174.1" x2="319" y2="163.8" stroke="#5f646b" stroke-width="0.6000000000000001" stroke-linecap="butt"/><line x1="319" y1="163.8" x2="329.2" y2="174.1" stroke="#5f646b" stroke-width="0.6000000000000001" stroke-linecap="butt"/><line x1="329.2" y1="174.1" x2="339.5" y2="163.8" stroke="#5f646b" stroke-width="0.6000000000000001" stroke-linecap="butt"/><line x1="339.5" y1="163.8" x2="349.7" y2="174.1" stroke="#5f646b" stroke-width="0.6000000000000001" stroke-linecap="butt"/><line x1="349.7" y1="174.1" x2="360" y2="163.8" stroke="#5f646b" stroke-width="0.6000000000000001" stroke-linecap="butt"/><line x1="360" y1="163.8" x2="370.3" y2="174.1" stroke="#5f646b" stroke-width="0.6000000000000001" stroke-linecap="butt"/><line x1="370.3" y1="174.1" x2="380.5" y2="163.8" stroke="#5f646b" stroke-width="0.6000000000000001" stroke-linecap="butt"/><line x1="380.5" y1="163.8" x2="390.8" y2="174.1" stroke="#5f646b" stroke-width="0.6000000000000001" stroke-linecap="butt"/><line x1="390.8" y1="174.1" x2="401" y2="163.8" stroke="#5f646b" stroke-width="0.6000000000000001" stroke-linecap="butt"/><line x1="401" y1="163.8" x2="411.3" y2="174.1" stroke="#5f646b" stroke-width="0.6000000000000001" stroke-linecap="butt"/><line x1="411.3" y1="174.1" x2="421.5" y2="163.8" stroke="#5f646b" stroke-width="0.6000000000000001" stroke-linecap="butt"/><line x1="421.5" y1="163.8" x2="431.8" y2="174.1" stroke="#5f646b" stroke-width="0.6000000000000001" stroke-linecap="butt"/><line x1="431.8" y1="174.1" x2="442.1" y2="163.8" stroke="#5f646b" stroke-width="0.6000000000000001" stroke-linecap="butt"/>
    <!-- the hall banner, hung from the trusses -->
    <line x1="320" y1="175.3" x2="320" y2="151.3" stroke="#5f646b" stroke-width="1.5" stroke-linecap="butt"/><line x1="373.3" y1="175.3" x2="373.3" y2="151.3" stroke="#5f646b" stroke-width="1.5" stroke-linecap="butt"/>
    <g transform="translate(298.7 175.3) scale(0.1333)"><rect x="0" y="0" width="720" height="110" fill="#111214"/><g transform="translate(24 15) scale(0.8)"><g transform="rotate(45 50 50)"><path d="M50 4 C55 4 57 11 57 19 L57 37 L94 58 L94 67 L57 57 L57 77 L69 87 L69 94 L50 89 L31 94 L31 87 L43 77 L43 57 L6 67 L6 58 L43 37 L43 19 C43 11 45 4 50 4 Z" fill="#ffcc00"/></g></g><text x="126" y="80" font-family="'Helvetica Neue', Helvetica, Arial, 'Liberation Sans', 'Nimbus Sans', sans-serif" font-size="62" font-weight="700" fill="#ffffff" text-anchor="start" letter-spacing="5" textLength="560" lengthAdjust="spacingAndGlyphs">CHECK-IN  41–46</text></g>
    <g transform="translate(255 247.5) scale(0.2500)"><rect x="0" y="0" width="60" height="170" rx="4" fill="#ffffff"/><rect x="0" y="0" width="60" height="20" rx="4" fill="#111214"/><rect x="8" y="30" width="44" height="54" fill="#111214"/><rect x="14" y="36" width="32" height="14" fill="#ffcc00"/></g><g transform="translate(220 246.7) scale(0.3333)"><rect x="0" y="0" width="60" height="170" rx="4" fill="#ffffff"/><rect x="0" y="0" width="60" height="20" rx="4" fill="#111214"/><rect x="8" y="30" width="44" height="54" fill="#111214"/><rect x="14" y="36" width="32" height="14" fill="#ffcc00"/></g><g transform="translate(150 245) scale(0.5000)"><rect x="0" y="0" width="60" height="170" rx="4" fill="#ffffff"/><rect x="0" y="0" width="60" height="20" rx="4" fill="#111214"/><rect x="8" y="30" width="44" height="54" fill="#111214"/><rect x="14" y="36" width="32" height="14" fill="#ffcc00"/></g><path d="M560 410 L560 300 L382.2 255.6 L382.2 267.8 Z" fill="#c4c8cc"/><path d="M560 300 L650 300 L392.2 255.6 L382.2 255.6 Z" fill="#8b9096"/><line x1="389.2" y1="273.4" x2="389.2" y2="257.3" stroke="#8b9096" stroke-width="1" stroke-linecap="butt"/><path d="M390.3 256.9 L397.2 256.9 L397.2 251.4 L390.3 251.4 Z" fill="#111214"/><path d="M388.8 262.2 L388.8 257.2 L387.8 256.9 L387.8 261.8 Z" fill="#111214"/><line x1="391.7" y1="221" x2="391.7" y2="147.9" stroke="#5f646b" stroke-width="1.5" stroke-linecap="butt"/><line x1="408.3" y1="221" x2="408.3" y2="147.9" stroke="#5f646b" stroke-width="1.5" stroke-linecap="butt"/><g transform="translate(387.6 221) scale(0.1379)"><rect x="0" y="0" width="170" height="100" rx="3" fill="#111214"/><text x="18" y="78" font-family="'Helvetica Neue', Helvetica, Arial, 'Liberation Sans', 'Nimbus Sans', sans-serif" font-size="76" font-weight="700" fill="#ffcc00" text-anchor="start">46</text><g transform="translate(124 30) scale(0.4)"><path d="M38 30 V18 Q38 14 42 14 H58 Q62 14 62 18 V30" fill="none" stroke="#ffffff" stroke-width="7"/><rect x="16" y="30" width="68" height="56" rx="7" fill="#ffffff"/><rect x="31" y="30" width="5" height="56" fill="#111214"/><rect x="64" y="30" width="5" height="56" fill="#111214"/><rect x="24" y="86" width="10" height="8" rx="2" fill="#ffffff"/><rect x="66" y="86" width="10" height="8" rx="2" fill="#ffffff"/></g></g><line x1="395.1" y1="278.1" x2="395.1" y2="258.8" stroke="#8b9096" stroke-width="1" stroke-linecap="butt"/><path d="M396.1 258.2 L404.3 258.2 L404.3 251.6 L396.1 251.6 Z" fill="#111214"/><path d="M394.5 264.7 L394.5 258.6 L393.1 258.3 L393.1 264 Z" fill="#111214"/><line x1="397.7" y1="215.6" x2="397.7" y2="128.7" stroke="#5f646b" stroke-width="1.5" stroke-linecap="butt"/><line x1="417.4" y1="215.6" x2="417.4" y2="128.7" stroke="#5f646b" stroke-width="1.5" stroke-linecap="butt"/><g transform="translate(392.8 215.6) scale(0.1639)"><rect x="0" y="0" width="170" height="100" rx="3" fill="#111214"/><text x="18" y="78" font-family="'Helvetica Neue', Helvetica, Arial, 'Liberation Sans', 'Nimbus Sans', sans-serif" font-size="76" font-weight="700" fill="#ffcc00" text-anchor="start">45</text><g transform="translate(124 30) scale(0.4)"><g transform="rotate(45 50 50)"><path d="M50 4 C55 4 57 11 57 19 L57 37 L94 58 L94 67 L57 57 L57 77 L69 87 L69 94 L50 89 L31 94 L31 87 L43 77 L43 57 L6 67 L6 58 L43 37 L43 19 C43 11 45 4 50 4 Z" fill="#ffffff"/></g></g></g><line x1="404" y1="285.2" x2="404" y2="261" stroke="#8b9096" stroke-width="1" stroke-linecap="butt"/><path d="M404.4 260.1 L414.5 260.1 L414.5 252 L404.4 252 Z" fill="#111214"/><path d="M403 268.3 L403 260.8 L400.8 260.2 L400.8 267.3 Z" fill="#111214"/><line x1="406.5" y1="207.6" x2="406.5" y2="100.5" stroke="#5f646b" stroke-width="1.5" stroke-linecap="butt"/><line x1="430.7" y1="207.6" x2="430.7" y2="100.5" stroke="#5f646b" stroke-width="1.5" stroke-linecap="butt"/><g transform="translate(400.4 207.6) scale(0.2020)"><rect x="0" y="0" width="170" height="100" rx="3" fill="#111214"/><text x="18" y="78" font-family="'Helvetica Neue', Helvetica, Arial, 'Liberation Sans', 'Nimbus Sans', sans-serif" font-size="76" font-weight="700" fill="#ffcc00" text-anchor="start">44</text><g transform="translate(124 30) scale(0.4)"><g transform="rotate(45 50 50)"><path d="M50 4 C55 4 57 11 57 19 L57 37 L94 58 L94 67 L57 57 L57 77 L69 87 L69 94 L50 89 L31 94 L31 87 L43 77 L43 57 L6 67 L6 58 L43 37 L43 19 C43 11 45 4 50 4 Z" fill="#ffffff"/></g></g></g><line x1="418.8" y1="297.1" x2="418.8" y2="264.7" stroke="#8b9096" stroke-width="1" stroke-linecap="butt"/><path d="M417.9 263.2 L431.1 263.2 L431.1 252.6 L417.9 252.6 Z" fill="#111214"/><path d="M417.1 274.3 L417.1 264.3 L413.3 263.3 L413.3 272.7 Z" fill="#111214"/><line x1="420.5" y1="194.7" x2="420.5" y2="55.3" stroke="#5f646b" stroke-width="1.5" stroke-linecap="butt"/><line x1="452.1" y1="194.7" x2="452.1" y2="55.3" stroke="#5f646b" stroke-width="1.5" stroke-linecap="butt"/><g transform="translate(412.6 194.7) scale(0.2632)"><rect x="0" y="0" width="170" height="100" rx="3" fill="#111214"/><text x="18" y="78" font-family="'Helvetica Neue', Helvetica, Arial, 'Liberation Sans', 'Nimbus Sans', sans-serif" font-size="76" font-weight="700" fill="#ffcc00" text-anchor="start">43</text><g transform="translate(124 30) scale(0.4)"><g transform="rotate(45 50 50)"><path d="M50 4 C55 4 57 11 57 19 L57 37 L94 58 L94 67 L57 57 L57 77 L69 87 L69 94 L50 89 L31 94 L31 87 L43 77 L43 57 L6 67 L6 58 L43 37 L43 19 C43 11 45 4 50 4 Z" fill="#ffffff"/></g></g></g><line x1="448.9" y1="321.1" x2="448.9" y2="272.2" stroke="#8b9096" stroke-width="1.1320754716981132" stroke-linecap="butt"/><path d="M443 268.9 L461.9 268.9 L461.9 253.8 L443 253.8 Z" fill="#111214"/><path d="M445.1 286.2 L445.1 271.3 L436.9 269.2 L436.9 282.7 Z" fill="#111214"/><line x1="446.8" y1="170.8" x2="446.8" y2="-29.2" stroke="#5f646b" stroke-width="1.509433962264151" stroke-linecap="butt"/><line x1="492.1" y1="170.8" x2="492.1" y2="-29.2" stroke="#5f646b" stroke-width="1.509433962264151" stroke-linecap="butt"/><g transform="translate(435.5 170.8) scale(0.3774)"><rect x="0" y="0" width="170" height="100" rx="3" fill="#111214"/><text x="18" y="78" font-family="'Helvetica Neue', Helvetica, Arial, 'Liberation Sans', 'Nimbus Sans', sans-serif" font-size="76" font-weight="700" fill="#ffcc00" text-anchor="start">42</text><g transform="translate(124 30) scale(0.4)"><g transform="rotate(45 50 50)"><path d="M50 4 C55 4 57 11 57 19 L57 37 L94 58 L94 67 L57 57 L57 77 L69 87 L69 94 L50 89 L31 94 L31 87 L43 77 L43 57 L6 67 L6 58 L43 37 L43 19 C43 11 45 4 50 4 Z" fill="#ffffff"/></g></g></g><line x1="541.8" y1="395.5" x2="541.8" y2="295.5" stroke="#8b9096" stroke-width="2" stroke-linecap="butt"/><path d="M506.7 283.3 L540 283.3 L540 256.7 L506.7 256.7 Z" fill="#111214"/><path d="M526.7 320.8 L526.7 291.7 L497.9 284.5 L497.9 308.6 Z" fill="#111214"/><line x1="513.3" y1="110" x2="513.3" y2="-243.3" stroke="#5f646b" stroke-width="2.666666666666667" stroke-linecap="butt"/><line x1="593.3" y1="110" x2="593.3" y2="-243.3" stroke="#5f646b" stroke-width="2.666666666666667" stroke-linecap="butt"/><g transform="translate(493.3 110) scale(0.6667)"><rect x="0" y="0" width="170" height="100" rx="3" fill="#111214"/><text x="18" y="78" font-family="'Helvetica Neue', Helvetica, Arial, 'Liberation Sans', 'Nimbus Sans', sans-serif" font-size="76" font-weight="700" fill="#ffcc00" text-anchor="start">41</text><g transform="translate(124 30) scale(0.4)"><g transform="rotate(45 50 50)"><path d="M50 4 C55 4 57 11 57 19 L57 37 L94 58 L94 67 L57 57 L57 77 L69 87 L69 94 L50 89 L31 94 L31 87 L43 77 L43 57 L6 67 L6 58 L43 37 L43 19 C43 11 45 4 50 4 Z" fill="#ffffff"/></g></g></g><ellipse cx="346.7" cy="285.6" rx="4" ry="0.9" fill="#5f646b"/><rect x="346" y="263.3" width="1.5" height="22.2" fill="#8b9096"/><circle cx="346.7" cy="263.3" r="1.5" fill="#5f646b"/><ellipse cx="375.6" cy="285.6" rx="4" ry="0.9" fill="#5f646b"/><rect x="374.9" y="263.3" width="1.5" height="22.2" fill="#8b9096"/><circle cx="375.6" cy="263.3" r="1.5" fill="#5f646b"/><ellipse cx="345" cy="290" rx="4.5" ry="1" fill="#5f646b"/><rect x="344.3" y="265" width="1.5" height="25" fill="#8b9096"/><circle cx="345" cy="265" r="1.5" fill="#5f646b"/><ellipse cx="377.5" cy="290" rx="4.5" ry="1" fill="#5f646b"/><rect x="376.8" y="265" width="1.5" height="25" fill="#8b9096"/><circle cx="377.5" cy="265" r="1.5" fill="#5f646b"/><ellipse cx="342.9" cy="295.7" rx="5.1" ry="1.1" fill="#5f646b"/><rect x="342" y="267.1" width="1.7" height="28.6" fill="#8b9096"/><circle cx="342.9" cy="267.1" r="1.5" fill="#5f646b"/><ellipse cx="380" cy="295.7" rx="5.1" ry="1.1" fill="#5f646b"/><rect x="379.1" y="267.1" width="1.7" height="28.6" fill="#8b9096"/><circle cx="380" cy="267.1" r="1.5" fill="#5f646b"/><ellipse cx="340" cy="303.3" rx="6" ry="1.3" fill="#5f646b"/><rect x="339" y="270" width="2" height="33.3" fill="#8b9096"/><circle cx="340" cy="270" r="1.7" fill="#5f646b"/><ellipse cx="383.3" cy="303.3" rx="6" ry="1.3" fill="#5f646b"/><rect x="382.3" y="270" width="2" height="33.3" fill="#8b9096"/><circle cx="383.3" cy="270" r="1.7" fill="#5f646b"/><ellipse cx="336" cy="314" rx="7.2" ry="1.6" fill="#5f646b"/><rect x="334.8" y="274" width="2.4" height="40" fill="#8b9096"/><circle cx="336" cy="274" r="2" fill="#5f646b"/><ellipse cx="388" cy="314" rx="7.2" ry="1.6" fill="#5f646b"/><rect x="386.8" y="274" width="2.4" height="40" fill="#8b9096"/><circle cx="388" cy="274" r="2" fill="#5f646b"/><ellipse cx="330" cy="330" rx="9" ry="2" fill="#5f646b"/><rect x="328.5" y="280" width="3" height="50" fill="#8b9096"/><circle cx="330" cy="280" r="2.5" fill="#5f646b"/><ellipse cx="395" cy="330" rx="9" ry="2" fill="#5f646b"/><rect x="393.5" y="280" width="3" height="50" fill="#8b9096"/><circle cx="395" cy="280" r="2.5" fill="#5f646b"/><ellipse cx="320" cy="356.7" rx="12" ry="2.7" fill="#5f646b"/><rect x="318" y="290" width="4" height="66.7" fill="#8b9096"/><circle cx="320" cy="290" r="3.3" fill="#5f646b"/><ellipse cx="406.7" cy="356.7" rx="12" ry="2.7" fill="#5f646b"/><rect x="404.7" y="290" width="4" height="66.7" fill="#8b9096"/><circle cx="406.7" cy="290" r="3.3" fill="#5f646b"/><ellipse cx="300" cy="410" rx="18" ry="4" fill="#5f646b"/><rect x="297" y="310" width="6" height="100" fill="#8b9096"/><circle cx="300" cy="310" r="5" fill="#5f646b"/><ellipse cx="430" cy="410" rx="18" ry="4" fill="#5f646b"/><rect x="427" y="310" width="6" height="100" fill="#8b9096"/><circle cx="430" cy="310" r="5" fill="#5f646b"/><path d="M300 314 L346.7 264.2 L346.7 266 L300 322 Z" fill="#111214"/><path d="M430 314 L375.6 264.2 L375.6 266 L430 322 Z" fill="#111214"/><g transform="translate(340 245.3) scale(0.4235)"><circle cx="50" cy="13" r="9.5" fill="#111214"/><rect x="35" y="26" width="30" height="36" rx="7" fill="#111214"/><rect x="25" y="27" width="8" height="32" rx="4" fill="#111214"/><rect x="67" y="27" width="8" height="32" rx="4" fill="#111214"/><rect x="37" y="56" width="11" height="40" rx="4" fill="#111214"/><rect x="52" y="56" width="11" height="40" rx="4" fill="#111214"/></g><g transform="translate(336.6 244.5) scale(0.4966)"><circle cx="50" cy="13" r="9.5" fill="#1d5fd1"/><path d="M40 26 L60 26 Q66 26 67 32 L76 70 L24 70 L33 32 Q34 26 40 26 Z" fill="#1d5fd1"/><rect x="22" y="28" width="8" height="28" rx="4" transform="rotate(14 26 28)" fill="#1d5fd1"/><rect x="70" y="28" width="8" height="28" rx="4" transform="rotate(-14 74 28)" fill="#1d5fd1"/><rect x="39" y="66" width="9" height="30" rx="4" fill="#1d5fd1"/><rect x="52" y="66" width="9" height="30" rx="4" fill="#1d5fd1"/></g><g transform="translate(331.7 243.3) scale(0.6000)"><circle cx="50" cy="13" r="9.5" fill="#5f646b"/><rect x="35" y="26" width="30" height="36" rx="7" fill="#5f646b"/><rect x="25" y="27" width="8" height="32" rx="4" fill="#5f646b"/><rect x="67" y="27" width="8" height="32" rx="4" fill="#5f646b"/><rect x="37" y="56" width="11" height="40" rx="4" fill="#5f646b"/><rect x="52" y="56" width="11" height="40" rx="4" fill="#5f646b"/></g><g transform="translate(324.2 241.6) scale(0.7579)"><circle cx="50" cy="13" r="9.5" fill="#e0322b"/><path d="M40 26 L60 26 Q66 26 67 32 L76 70 L24 70 L33 32 Q34 26 40 26 Z" fill="#e0322b"/><rect x="22" y="28" width="8" height="28" rx="4" transform="rotate(14 26 28)" fill="#e0322b"/><rect x="70" y="28" width="8" height="28" rx="4" transform="rotate(-14 74 28)" fill="#e0322b"/><rect x="39" y="66" width="9" height="30" rx="4" fill="#e0322b"/><rect x="52" y="66" width="9" height="30" rx="4" fill="#e0322b"/></g><g transform="translate(311.4 238.6) scale(1.0286)"><circle cx="50" cy="13" r="9.5" fill="#111214"/><rect x="35" y="26" width="30" height="36" rx="7" fill="#111214"/><rect x="25" y="27" width="8" height="32" rx="4" fill="#111214"/><rect x="67" y="27" width="8" height="32" rx="4" fill="#111214"/><rect x="37" y="56" width="11" height="40" rx="4" fill="#111214"/><rect x="52" y="56" width="11" height="40" rx="4" fill="#111214"/></g><g transform="translate(400 236.7) scale(1.2000)"><circle cx="50" cy="13" r="9.5" fill="#1f9d55"/><rect x="35" y="26" width="30" height="36" rx="7" fill="#1f9d55"/><rect x="25" y="27" width="8" height="32" rx="4" fill="#1f9d55"/><rect x="67" y="27" width="8" height="32" rx="4" fill="#1f9d55"/><rect x="37" y="56" width="11" height="40" rx="4" fill="#1f9d55"/><rect x="52" y="56" width="11" height="40" rx="4" fill="#1f9d55"/></g><g transform="translate(386.1 241.3) scale(0.7826)"><circle cx="50" cy="13" r="9.5" fill="#111214"/><path d="M40 26 L60 26 Q66 26 67 32 L76 70 L24 70 L33 32 Q34 26 40 26 Z" fill="#111214"/><rect x="22" y="28" width="8" height="28" rx="4" transform="rotate(14 26 28)" fill="#111214"/><rect x="70" y="28" width="8" height="28" rx="4" transform="rotate(-14 74 28)" fill="#111214"/><rect x="39" y="66" width="9" height="30" rx="4" fill="#111214"/><rect x="52" y="66" width="9" height="30" rx="4" fill="#111214"/></g>
</svg>
