<svg xmlns="http://www.w3.org/2000/svg" viewBox="0 0 720 460" width="720" height="460">
<rect width="720" height="460" fill="#ecebe7"/>
<rect width="720" height="270" fill="#e3e8eb"/>
    <!-- terminal on the horizon -->
    <rect x="0" y="196" width="720" height="74" fill="#d8d6d0"/><rect x="0" y="210" width="720" height="34" fill="#a9c3cf"/>
    <rect x="12" y="210" width="3" height="34" fill="#7d9eae"/><rect x="42" y="210" width="3" height="34" fill="#7d9eae"/><rect x="72" y="210" width="3" height="34" fill="#7d9eae"/><rect x="102" y="210" width="3" height="34" fill="#7d9eae"/><rect x="132" y="210" width="3" height="34" fill="#7d9eae"/><rect x="162" y="210" width="3" height="34" fill="#7d9eae"/><rect x="192" y="210" width="3" height="34" fill="#7d9eae"/><rect x="222" y="210" width="3" height="34" fill="#7d9eae"/><rect x="252" y="210" width="3" height="34" fill="#7d9eae"/><rect x="282" y="210" width="3" height="34" fill="#7d9eae"/><rect x="312" y="210" width="3" height="34" fill="#7d9eae"/><rect x="342" y="210" width="3" height="34" fill="#7d9eae"/><rect x="372" y="210" width="3" height="34" fill="#7d9eae"/><rect x="402" y="210" width="3" height="34" fill="#7d9eae"/><rect x="432" y="210" width="3" height="34" fill="#7d9eae"/><rect x="462" y="210" width="3" height="34" fill="#7d9eae"/><rect x="492" y="210" width="3" height="34" fill="#7d9eae"/><rect x="522" y="210" width="3" height="34" fill="#7d9eae"/><rect x="552" y="210" width="3" height="34" fill="#7d9eae"/><rect x="582" y="210" width="3" height="34" fill="#7d9eae"/><rect x="612" y="210" width="3" height="34" fill="#7d9eae"/><rect x="642" y="210" width="3" height="34" fill="#7d9eae"/><rect x="672" y="210" width="3" height="34" fill="#7d9eae"/><rect x="702" y="210" width="3" height="34" fill="#7d9eae"/>
    <rect x="0" y="190" width="720" height="8" fill="#111214"/>
    <rect x="0" y="270" width="720" height="190" fill="#bdbab3"/>
    <path d="M320 270 L400 270 L840 460 L-120 460 Z" fill="#3a3d42"/>
    <line x1="360" y1="270" x2="359" y2="271.6" stroke="#ffffff" stroke-width="1.04143067521675" stroke-linecap="butt"/><line x1="356.4" y1="275.6" x2="353.5" y2="280.2" stroke="#ffffff" stroke-width="1.2693833769148597" stroke-linecap="butt"/><line x1="349.2" y1="287.1" x2="345" y2="293.7" stroke="#ffffff" stroke-width="1.6235161749525377" stroke-linecap="butt"/><line x1="339.3" y1="302.8" x2="334.1" y2="311" stroke="#ffffff" stroke-width="2.078183152534176" stroke-linecap="butt"/><line x1="327.2" y1="321.9" x2="321.1" y2="331.6" stroke="#ffffff" stroke-width="2.620160377143773" stroke-linecap="butt"/><line x1="313.1" y1="344.2" x2="306.2" y2="355.2" stroke="#ffffff" stroke-width="3.2408686089967027" stroke-linecap="butt"/><line x1="297.3" y1="369.3" x2="289.6" y2="381.5" stroke="#ffffff" stroke-width="3.9341177093584148" stroke-linecap="butt"/><line x1="279.7" y1="397.1" x2="271.3" y2="410.4" stroke="#ffffff" stroke-width="4.695149599250348" stroke-linecap="butt"/><line x1="260.6" y1="427.4" x2="251.5" y2="441.8" stroke="#ffffff" stroke-width="5.520148715158715" stroke-linecap="butt"/><line x1="360" y1="270" x2="361" y2="271.6" stroke="#ffffff" stroke-width="1.04143067521675" stroke-linecap="butt"/><line x1="363.6" y1="275.6" x2="366.5" y2="280.2" stroke="#ffffff" stroke-width="1.2693833769148597" stroke-linecap="butt"/><line x1="370.8" y1="287.1" x2="375" y2="293.7" stroke="#ffffff" stroke-width="1.6235161749525377" stroke-linecap="butt"/><line x1="380.7" y1="302.8" x2="385.9" y2="311" stroke="#ffffff" stroke-width="2.078183152534176" stroke-linecap="butt"/><line x1="392.8" y1="321.9" x2="398.9" y2="331.6" stroke="#ffffff" stroke-width="2.620160377143773" stroke-linecap="butt"/><line x1="406.9" y1="344.2" x2="413.8" y2="355.2" stroke="#ffffff" stroke-width="3.2408686089967027" stroke-linecap="butt"/><line x1="422.7" y1="369.3" x2="430.4" y2="381.5" stroke="#ffffff" stroke-width="3.9341177093584148" stroke-linecap="butt"/><line x1="440.3" y1="397.1" x2="448.7" y2="410.4" stroke="#ffffff" stroke-width="4.695149599250348" stroke-linecap="butt"/><line x1="459.4" y1="427.4" x2="468.5" y2="441.8" stroke="#ffffff" stroke-width="5.520148715158715" stroke-linecap="butt"/>
    <!-- yellow-painted curb on the left -->
    <path d="M320 270 L326 270 L-90 460 L-120 460 Z" fill="#ffcc00"/>
    <!-- gantry -->
    <rect x="36" y="54" width="16" height="406" fill="#8b9096"/><rect x="668" y="54" width="16" height="406" fill="#8b9096"/>
    <rect x="24" y="50" width="672" height="16" fill="#5f646b"/>
    <rect x="110" y="66" width="6" height="12" fill="#5f646b"/><rect x="330" y="66" width="6" height="12" fill="#5f646b"/><rect x="420" y="66" width="6" height="12" fill="#5f646b"/><rect x="620" y="66" width="6" height="12" fill="#5f646b"/>
    <!-- sign 1: Departures -->
    <rect x="70" y="78" width="300" height="118" rx="3" fill="#111214"/>
    <g transform="translate(86 94) scale(0.58)"><g transform="rotate(45 50 50)"><path d="M50 4 C55 4 57 11 57 19 L57 37 L94 58 L94 67 L57 57 L57 77 L69 87 L69 94 L50 89 L31 94 L31 87 L43 77 L43 57 L6 67 L6 58 L43 37 L43 19 C43 11 45 4 50 4 Z" fill="#ffffff"/></g></g>
    <text x="158" y="128" font-family="'Helvetica Neue', Helvetica, Arial, 'Liberation Sans', 'Nimbus Sans', sans-serif" font-size="34" font-weight="700" fill="#ffffff" text-anchor="start" textLength="168" lengthAdjust="spacingAndGlyphs">Departures</text>
    <text x="158" y="158" font-family="'Helvetica Neue', Helvetica, Arial, 'Liberation Sans', 'Nimbus Sans', sans-serif" font-size="15" font-weight="700" fill="#ffcc00" text-anchor="start" textLength="168" lengthAdjust="spacingAndGlyphs">Terminal 3 · Gates A–C</text>
    <rect x="158" y="172" width="196" height="2" fill="#ffffff" opacity="0.25"/>
    <text x="158" y="189" font-family="'Helvetica Neue', Helvetica, Arial, 'Liberation Sans', 'Nimbus Sans', sans-serif" font-size="11" font-weight="400" fill="#ffffff" text-anchor="start" textLength="160" lengthAdjust="spacingAndGlyphs">Drop-off only · no waiting</text>
    <!-- sign 2: Arrivals -->
    <rect x="400" y="78" width="250" height="118" rx="3" fill="#1d5fd1"/>
    <g transform="translate(414 94) scale(0.58)"><g transform="translate(4 -6) scale(.9) rotate(135 50 50)"><path d="M50 4 C55 4 57 11 57 19 L57 37 L94 58 L94 67 L57 57 L57 77 L69 87 L69 94 L50 89 L31 94 L31 87 L43 77 L43 57 L6 67 L6 58 L43 37 L43 19 C43 11 45 4 50 4 Z" fill="#ffffff"/></g><rect x="6" y="88" width="88" height="7" rx="2" fill="#ffffff"/></g>
    <text x="486" y="128" font-family="'Helvetica Neue', Helvetica, Arial, 'Liberation Sans', 'Nimbus Sans', sans-serif" font-size="34" font-weight="700" fill="#ffffff" text-anchor="start" textLength="138" lengthAdjust="spacingAndGlyphs">Arrivals</text>
    <text x="486" y="158" font-family="'Helvetica Neue', Helvetica, Arial, 'Liberation Sans', 'Nimbus Sans', sans-serif" font-size="15" font-weight="400" fill="#ffffff" text-anchor="start" textLength="90" lengthAdjust="spacingAndGlyphs">Lower level</text>
    <g transform="translate(590 150) scale(0.4) rotate(45 50 50)"><path d="M8 41 H60 L38 19 H60 L91 50 L60 81 H38 L60 59 H8 Z" fill="#ffffff"/></g>
    <!-- the terminal number plate on the beam -->
    <rect x="318" y="22" width="84" height="40" rx="3" fill="#ffcc00"/>
    <text x="360" y="52" font-family="'Helvetica Neue', Helvetica, Arial, 'Liberation Sans', 'Nimbus Sans', sans-serif" font-size="30" font-weight="700" fill="#111214" text-anchor="middle">T3</text>
</svg>
