<svg xmlns="http://www.w3.org/2000/svg" viewBox="0 0 640 540" width="640" height="540">
<rect width="640" height="540" fill="#ecebe7"/>
<rect x="0" y="-20" width="640" height="3" fill="#bdbab3"/><rect x="0" y="90" width="640" height="3" fill="#bdbab3"/><rect x="0" y="200" width="640" height="3" fill="#bdbab3"/><rect x="0" y="310" width="640" height="3" fill="#bdbab3"/><rect x="0" y="420" width="640" height="3" fill="#bdbab3"/><rect x="0" y="530" width="640" height="3" fill="#bdbab3"/>
    <rect x="70" y="0" width="3" height="540" fill="#bdbab3"/><rect x="230" y="0" width="3" height="540" fill="#bdbab3"/><rect x="390" y="0" width="3" height="540" fill="#bdbab3"/><rect x="550" y="0" width="3" height="540" fill="#bdbab3"/><rect x="710" y="0" width="3" height="540" fill="#bdbab3"/>
    <text x="320" y="150" font-family="'Helvetica Neue', Helvetica, Arial, 'Liberation Sans', 'Nimbus Sans', sans-serif" font-size="64" font-weight="700" fill="#111214" text-anchor="middle" textLength="470" lengthAdjust="spacingAndGlyphs">PLEASE WAIT</text>
    <text x="320" y="220" font-family="'Helvetica Neue', Helvetica, Arial, 'Liberation Sans', 'Nimbus Sans', sans-serif" font-size="64" font-weight="700" fill="#111214" text-anchor="middle" textLength="470" lengthAdjust="spacingAndGlyphs">BEHIND THE LINE</text>
    <clipPath id="hz_line"><rect x="0" y="290" width="640" height="26"/></clipPath><rect x="0" y="290" width="640" height="26" fill="#ffcc00"/><g clip-path="url(#hz_line)"><path d="M-26 316 L0 290 L18 290 L-8 316 Z" fill="#111214"/><path d="M10 316 L36 290 L54 290 L28 316 Z" fill="#111214"/><path d="M46 316 L72 290 L90 290 L64 316 Z" fill="#111214"/><path d="M82 316 L108 290 L126 290 L100 316 Z" fill="#111214"/><path d="M118 316 L144 290 L162 290 L136 316 Z" fill="#111214"/><path d="M154 316 L180 290 L198 290 L172 316 Z" fill="#111214"/><path d="M190 316 L216 290 L234 290 L208 316 Z" fill="#111214"/><path d="M226 316 L252 290 L270 290 L244 316 Z" fill="#111214"/><path d="M262 316 L288 290 L306 290 L280 316 Z" fill="#111214"/><path d="M298 316 L324 290 L342 290 L316 316 Z" fill="#111214"/><path d="M334 316 L360 290 L378 290 L352 316 Z" fill="#111214"/><path d="M370 316 L396 290 L414 290 L388 316 Z" fill="#111214"/><path d="M406 316 L432 290 L450 290 L424 316 Z" fill="#111214"/><path d="M442 316 L468 290 L486 290 L460 316 Z" fill="#111214"/><path d="M478 316 L504 290 L522 290 L496 316 Z" fill="#111214"/><path d="M514 316 L540 290 L558 290 L532 316 Z" fill="#111214"/><path d="M550 316 L576 290 L594 290 L568 316 Z" fill="#111214"/><path d="M586 316 L612 290 L630 290 L604 316 Z" fill="#111214"/><path d="M622 316 L648 290 L666 290 L640 316 Z" fill="#111214"/><path d="M658 316 L684 290 L702 290 L676 316 Z" fill="#111214"/></g>
    <rect x="0" y="330" width="640" height="34" fill="#ffcc00"/>
    <g transform="translate(268 480) rotate(-6)"><path d="M-26 70 L-26 0 C-26 -36 26 -36 26 0 L26 70 Z" fill="#111214"/><path d="M-26 -2 C-26 -30 26 -30 26 -2" fill="none" stroke="#ffffff" stroke-width="5"/></g><g transform="translate(352 480) rotate(4)"><path d="M-26 70 L-26 0 C-26 -36 26 -36 26 0 L26 70 Z" fill="#111214"/><path d="M-26 -2 C-26 -30 26 -30 26 -2" fill="none" stroke="#ffffff" stroke-width="5"/></g>
</svg>
