<svg xmlns="http://www.w3.org/2000/svg" viewBox="0 0 640 640" width="640" height="640">
<rect width="640" height="640" fill="#ecebe7"/>
<rect x="0" y="70" width="640" height="470" fill="#a9c3cf"/>
    <!-- the hall seen dimly through the glass: a far wall and a hanging sign -->
    <rect x="0" y="300" width="640" height="240" fill="#7d9eae" opacity="0.5"/>
    <rect x="300" y="170" width="260" height="40" fill="#111214" opacity="0.55"/>
    <rect x="-3" y="70" width="6" height="470" fill="#5f646b"/><rect x="77" y="70" width="6" height="470" fill="#5f646b"/><rect x="157" y="70" width="6" height="470" fill="#5f646b"/><rect x="237" y="70" width="6" height="470" fill="#5f646b"/><rect x="317" y="70" width="6" height="470" fill="#5f646b"/><rect x="397" y="70" width="6" height="470" fill="#5f646b"/><rect x="477" y="70" width="6" height="470" fill="#5f646b"/><rect x="557" y="70" width="6" height="470" fill="#5f646b"/><rect x="637" y="70" width="6" height="470" fill="#5f646b"/>
    <rect x="0" y="160" width="640" height="6" fill="#5f646b"/><rect x="0" y="296" width="640" height="6" fill="#5f646b"/>
    <!-- canopy -->
    <rect x="0" y="0" width="640" height="74" fill="#111214"/>
    <text x="40" y="48" font-family="'Helvetica Neue', Helvetica, Arial, 'Liberation Sans', 'Nimbus Sans', sans-serif" font-size="30" font-weight="700" fill="#ffffff" text-anchor="start" letter-spacing="4" textLength="210" lengthAdjust="spacingAndGlyphs">TERMINAL 3</text>
    <text x="600" y="48" font-family="'Helvetica Neue', Helvetica, Arial, 'Liberation Sans', 'Nimbus Sans', sans-serif" font-size="30" font-weight="700" fill="#ffcc00" text-anchor="end" letter-spacing="4" textLength="210" lengthAdjust="spacingAndGlyphs">DEPARTURES</text>
    <!-- pylon -->
    <rect x="32" y="100" width="136" height="440" fill="#111214"/>
    <text x="100" y="138" font-family="'Helvetica Neue', Helvetica, Arial, 'Liberation Sans', 'Nimbus Sans', sans-serif" font-size="16" font-weight="700" fill="#ffffff" text-anchor="middle" letter-spacing="5" textLength="104" lengthAdjust="spacingAndGlyphs">TERMINAL</text>
    <text x="100" y="356" font-family="'Helvetica Neue', Helvetica, Arial, 'Liberation Sans', 'Nimbus Sans', sans-serif" font-size="260" font-weight="700" fill="#ffcc00" text-anchor="middle">3</text>
    <g transform="translate(64 400) scale(0.72)"><g transform="rotate(45 50 50)"><path d="M50 4 C55 4 57 11 57 19 L57 37 L94 58 L94 67 L57 57 L57 77 L69 87 L69 94 L50 89 L31 94 L31 87 L43 77 L43 57 L6 67 L6 58 L43 37 L43 19 C43 11 45 4 50 4 Z" fill="#ffffff"/></g></g>
    <text x="100" y="508" font-family="'Helvetica Neue', Helvetica, Arial, 'Liberation Sans', 'Nimbus Sans', sans-serif" font-size="14" font-weight="400" fill="#ffffff" text-anchor="middle" textLength="104" lengthAdjust="spacingAndGlyphs">Gates A · B · C</text>
    <!-- sliding doors, parting as the traveler reaches them -->
    <rect x="250" y="296" width="340" height="248" fill="#8b9096"/>
    <rect x="262" y="310" width="316" height="230" fill="#5e7d8c"/>
    <rect x="262" y="470" width="316" height="70" fill="#c9cdc9"/>
    <rect x="262" y="310" width="112" height="230" fill="#7d9eae"/><rect x="466" y="310" width="112" height="230" fill="#7d9eae"/>
    <rect x="370" y="310" width="6" height="230" fill="#5f646b"/><rect x="464" y="310" width="6" height="230" fill="#5f646b"/>
    <rect x="262" y="404" width="112" height="22" fill="#111214"/><rect x="466" y="404" width="112" height="22" fill="#111214"/>
    <text x="318" y="420" font-family="'Helvetica Neue', Helvetica, Arial, 'Liberation Sans', 'Nimbus Sans', sans-serif" font-size="11" font-weight="700" fill="#ffffff" text-anchor="middle" letter-spacing="2" textLength="90" lengthAdjust="spacingAndGlyphs">AUTOMATIC</text>
    <text x="522" y="420" font-family="'Helvetica Neue', Helvetica, Arial, 'Liberation Sans', 'Nimbus Sans', sans-serif" font-size="11" font-weight="700" fill="#ffffff" text-anchor="middle" letter-spacing="2" textLength="90" lengthAdjust="spacingAndGlyphs">AUTOMATIC</text>
    <rect x="380" y="206" width="80" height="80" fill="#111214"/><g transform="translate(392 218) scale(0.56)"><g transform="rotate(45 50 50)"><path d="M50 4 C55 4 57 11 57 19 L57 37 L94 58 L94 67 L57 57 L57 77 L69 87 L69 94 L50 89 L31 94 L31 87 L43 77 L43 57 L6 67 L6 58 L43 37 L43 19 C43 11 45 4 50 4 Z" fill="#ffffff"/></g></g>
    <!-- a traveler from behind, mid-stride, about to walk through, pulling a bag -->
    <g fill="#111214">
      <rect x="401" y="462" width="17" height="86" rx="7" transform="rotate(9 409 462)"/>
      <rect x="424" y="462" width="17" height="84" rx="7" transform="rotate(-11 432 462)"/>
      <rect x="386" y="394" width="12" height="64" rx="6" transform="rotate(12 392 396)"/>
      <rect x="444" y="394" width="12" height="62" rx="6" transform="rotate(-34 450 396)"/>
      <rect x="395" y="388" width="52" height="84" rx="12"/>
      <circle cx="421" cy="370" r="15"/>
    </g>
    <line x1="484" y1="444" x2="512" y2="486" stroke="#5f646b" stroke-width="4" stroke-linecap="butt"/>
    <g transform="rotate(-10 524 552)"><rect x="500" y="482" width="56" height="70" rx="8" fill="#1d5fd1"/><rect x="512" y="482" width="4" height="70" fill="#174ca8"/><rect x="540" y="482" width="4" height="70" fill="#174ca8"/></g>
    <circle cx="512" cy="552" r="5" fill="#111214"/>
    <!-- pavement and tactile strip -->
    <rect x="0" y="540" width="640" height="100" fill="#d8d6d0"/>
    <rect x="0" y="552" width="640" height="18" fill="#ffcc00"/>
    <circle cx="8" cy="561" r="3.5" fill="#e0b000"/><circle cx="24" cy="561" r="3.5" fill="#e0b000"/><circle cx="40" cy="561" r="3.5" fill="#e0b000"/><circle cx="56" cy="561" r="3.5" fill="#e0b000"/><circle cx="72" cy="561" r="3.5" fill="#e0b000"/><circle cx="88" cy="561" r="3.5" fill="#e0b000"/><circle cx="104" cy="561" r="3.5" fill="#e0b000"/><circle cx="120" cy="561" r="3.5" fill="#e0b000"/><circle cx="136" cy="561" r="3.5" fill="#e0b000"/><circle cx="152" cy="561" r="3.5" fill="#e0b000"/><circle cx="168" cy="561" r="3.5" fill="#e0b000"/><circle cx="184" cy="561" r="3.5" fill="#e0b000"/><circle cx="200" cy="561" r="3.5" fill="#e0b000"/><circle cx="216" cy="561" r="3.5" fill="#e0b000"/><circle cx="232" cy="561" r="3.5" fill="#e0b000"/><circle cx="248" cy="561" r="3.5" fill="#e0b000"/><circle cx="264" cy="561" r="3.5" fill="#e0b000"/><circle cx="280" cy="561" r="3.5" fill="#e0b000"/><circle cx="296" cy="561" r="3.5" fill="#e0b000"/><circle cx="312" cy="561" r="3.5" fill="#e0b000"/><circle cx="328" cy="561" r="3.5" fill="#e0b000"/><circle cx="344" cy="561" r="3.5" fill="#e0b000"/><circle cx="360" cy="561" r="3.5" fill="#e0b000"/><circle cx="376" cy="561" r="3.5" fill="#e0b000"/><circle cx="392" cy="561" r="3.5" fill="#e0b000"/><circle cx="408" cy="561" r="3.5" fill="#e0b000"/><circle cx="424" cy="561" r="3.5" fill="#e0b000"/><circle cx="440" cy="561" r="3.5" fill="#e0b000"/><circle cx="456" cy="561" r="3.5" fill="#e0b000"/><circle cx="472" cy="561" r="3.5" fill="#e0b000"/><circle cx="488" cy="561" r="3.5" fill="#e0b000"/><circle cx="504" cy="561" r="3.5" fill="#e0b000"/><circle cx="520" cy="561" r="3.5" fill="#e0b000"/><circle cx="536" cy="561" r="3.5" fill="#e0b000"/><circle cx="552" cy="561" r="3.5" fill="#e0b000"/><circle cx="568" cy="561" r="3.5" fill="#e0b000"/><circle cx="584" cy="561" r="3.5" fill="#e0b000"/><circle cx="600" cy="561" r="3.5" fill="#e0b000"/><circle cx="616" cy="561" r="3.5" fill="#e0b000"/><circle cx="632" cy="561" r="3.5" fill="#e0b000"/>
    <rect x="0" y="590" width="2" height="50" fill="#bdbab3"/><rect x="80" y="590" width="2" height="50" fill="#bdbab3"/><rect x="160" y="590" width="2" height="50" fill="#bdbab3"/><rect x="240" y="590" width="2" height="50" fill="#bdbab3"/><rect x="320" y="590" width="2" height="50" fill="#bdbab3"/><rect x="400" y="590" width="2" height="50" fill="#bdbab3"/><rect x="480" y="590" width="2" height="50" fill="#bdbab3"/><rect x="560" y="590" width="2" height="50" fill="#bdbab3"/><rect x="640" y="590" width="2" height="50" fill="#bdbab3"/>
</svg>
